  0
SECTION
  2
HEADER
  9
$ANGBASE
  50
0.0
  9
$ANGDIR
  70
1
  9
$MEASUREMENT
  70
1
  0
ENDSEC
  0
SECTION
  2
TABLES
  0
TABLE
  2
LTYPE
  70
4
  0
LTYPE
  5
40F
  2
CONTINUOUS
  70
0
  3
Solid line
  72
65
  73
0
  40
0.0
  0
LTYPE
  5
410
  2
DASHDOT
 70
0
  3
Dash Dot ____ _ ____ _
 72
65
 73
4
 40
2.0
 49
1.25
 49
-0.25
 49
0.25
 49
-0.25
  0
LTYPE
  5
411
  2
DASHED
 70
0
  3
Dashed __ __ __ __ __
 72
65
 73
2
 40
0.75
 49
0.5
 49
-0.25
  0
LTYPE
  5
43B
  2
DOTTED
 70
0
  3
Dotted .  .  .  .
 72
65
 73
2
 40
0.2
 49
0.0
 49
-0.2
  0
ENDTAB
  0
TABLE
  2
STYLE
  70
4
  0
STYLE
  2
KICAD
  70
0
  40
0
  41
1
  42
1
  50
0
  71
0
  3
isocp.shx
  0
STYLE
  2
KICADB
  70
0
  40
0
  41
1
  42
1
  50
0
  71
0
  3
isocp.shx
  0
STYLE
  2
KICADI
  70
0
  40
0
  41
1
  42
1
  50
15
  71
0
  3
isocp.shx
  0
STYLE
  2
KICADBI
  70
0
  40
0
  41
1
  42
1
  50
15
  71
0
  3
isocp.shx
  0
ENDTAB
  0
TABLE
  2
LAYER
  70
1
  0
LAYER
  2
BLACK
  70
0
  62
7
  6
CONTINUOUS
  0
ENDTAB
  0
ENDSEC
  0
SECTION
  2
ENTITIES
0
LINE
8
BLACK
6
CONTINUOUS
10
179.641
20
-116.593
11
179.641
21
-116.593
0
LINE
8
BLACK
6
CONTINUOUS
10
179.641
20
-116.593
11
179.65
21
-116.594
0
LINE
8
BLACK
6
CONTINUOUS
10
179.65
20
-116.594
11
179.661
21
-116.597
0
LINE
8
BLACK
6
CONTINUOUS
10
179.661
20
-116.597
11
179.671
21
-116.603
0
LINE
8
BLACK
6
CONTINUOUS
10
179.671
20
-116.603
11
179.681
21
-116.61
0
LINE
8
BLACK
6
CONTINUOUS
10
179.681
20
-116.61
11
179.688
21
-116.62
0
LINE
8
BLACK
6
CONTINUOUS
10
179.688
20
-116.62
11
179.694
21
-116.63
0
LINE
8
BLACK
6
CONTINUOUS
10
179.694
20
-116.63
11
179.697
21
-116.641
0
LINE
8
BLACK
6
CONTINUOUS
10
179.697
20
-116.641
11
179.698
21
-116.653
0
LINE
8
BLACK
6
CONTINUOUS
10
179.698
20
-116.653
11
179.698
21
-116.656
0
LINE
8
BLACK
6
CONTINUOUS
10
179.698
20
-116.656
11
179.698
21
-119.31
0
LINE
8
BLACK
6
CONTINUOUS
10
179.698
20
-119.31
11
179.698
21
-119.313
0
LINE
8
BLACK
6
CONTINUOUS
10
179.698
20
-119.313
11
179.698
21
-119.316
0
LINE
8
BLACK
6
CONTINUOUS
10
179.698
20
-119.316
11
179.697
21
-119.325
0
LINE
8
BLACK
6
CONTINUOUS
10
179.697
20
-119.325
11
179.694
21
-119.336
0
LINE
8
BLACK
6
CONTINUOUS
10
179.694
20
-119.336
11
179.688
21
-119.346
0
LINE
8
BLACK
6
CONTINUOUS
10
179.688
20
-119.346
11
179.681
21
-119.356
0
LINE
8
BLACK
6
CONTINUOUS
10
179.681
20
-119.356
11
179.671
21
-119.363
0
LINE
8
BLACK
6
CONTINUOUS
10
179.671
20
-119.363
11
179.661
21
-119.369
0
LINE
8
BLACK
6
CONTINUOUS
10
179.661
20
-119.369
11
179.65
21
-119.372
0
LINE
8
BLACK
6
CONTINUOUS
10
179.65
20
-119.372
11
179.638
21
-119.373
0
LINE
8
BLACK
6
CONTINUOUS
10
179.638
20
-119.373
11
179.635
21
-119.373
0
LINE
8
BLACK
6
CONTINUOUS
10
179.635
20
-119.373
11
166.881
21
-119.373
0
LINE
8
BLACK
6
CONTINUOUS
10
166.881
20
-119.373
11
166.878
21
-119.373
0
LINE
8
BLACK
6
CONTINUOUS
10
166.878
20
-119.373
11
166.875
21
-119.373
0
LINE
8
BLACK
6
CONTINUOUS
10
166.875
20
-119.373
11
166.875
21
-119.373
0
LINE
8
BLACK
6
CONTINUOUS
10
166.875
20
-119.373
11
166.866
21
-119.372
0
LINE
8
BLACK
6
CONTINUOUS
10
166.866
20
-119.372
11
166.855
21
-119.369
0
LINE
8
BLACK
6
CONTINUOUS
10
166.855
20
-119.369
11
166.845
21
-119.363
0
LINE
8
BLACK
6
CONTINUOUS
10
166.845
20
-119.363
11
166.835
21
-119.356
0
LINE
8
BLACK
6
CONTINUOUS
10
166.835
20
-119.356
11
166.828
21
-119.346
0
LINE
8
BLACK
6
CONTINUOUS
10
166.828
20
-119.346
11
166.822
21
-119.336
0
LINE
8
BLACK
6
CONTINUOUS
10
166.822
20
-119.336
11
166.819
21
-119.325
0
LINE
8
BLACK
6
CONTINUOUS
10
166.819
20
-119.325
11
166.818
21
-119.313
0
LINE
8
BLACK
6
CONTINUOUS
10
166.818
20
-119.313
11
166.818
21
-119.31
0
LINE
8
BLACK
6
CONTINUOUS
10
166.818
20
-119.31
11
166.818
21
-116.656
0
LINE
8
BLACK
6
CONTINUOUS
10
166.818
20
-116.656
11
166.818
21
-116.653
0
LINE
8
BLACK
6
CONTINUOUS
10
166.818
20
-116.653
11
166.819
21
-116.641
0
LINE
8
BLACK
6
CONTINUOUS
10
166.819
20
-116.641
11
166.822
21
-116.63
0
LINE
8
BLACK
6
CONTINUOUS
10
166.822
20
-116.63
11
166.828
21
-116.62
0
LINE
8
BLACK
6
CONTINUOUS
10
166.828
20
-116.62
11
166.835
21
-116.61
0
LINE
8
BLACK
6
CONTINUOUS
10
166.835
20
-116.61
11
166.845
21
-116.603
0
LINE
8
BLACK
6
CONTINUOUS
10
166.845
20
-116.603
11
166.855
21
-116.597
0
LINE
8
BLACK
6
CONTINUOUS
10
166.855
20
-116.597
11
166.866
21
-116.594
0
LINE
8
BLACK
6
CONTINUOUS
10
166.866
20
-116.594
11
166.875
21
-116.593
0
LINE
8
BLACK
6
CONTINUOUS
10
166.875
20
-116.593
11
166.878
21
-116.593
0
LINE
8
BLACK
6
CONTINUOUS
10
166.878
20
-116.593
11
166.881
21
-116.593
0
LINE
8
BLACK
6
CONTINUOUS
10
166.881
20
-116.593
11
179.635
21
-116.593
0
LINE
8
BLACK
6
CONTINUOUS
10
179.635
20
-116.593
11
179.638
21
-116.593
0
LINE
8
BLACK
6
CONTINUOUS
10
179.638
20
-116.593
11
179.641
21
-116.593
0
LINE
8
BLACK
6
CONTINUOUS
10
166.938
20
-116.713
11
166.938
21
-119.253
0
LINE
8
BLACK
6
CONTINUOUS
10
166.938
20
-119.253
11
179.578
21
-119.253
0
LINE
8
BLACK
6
CONTINUOUS
10
179.578
20
-119.253
11
179.578
21
-116.713
0
LINE
8
BLACK
6
CONTINUOUS
10
179.578
20
-116.713
11
166.938
21
-116.713
0
LINE
8
BLACK
6
CONTINUOUS
10
163.745
20
-118.005
11
163.759
21
-118.009
0
LINE
8
BLACK
6
CONTINUOUS
10
163.759
20
-118.009
11
163.772
21
-118.016
0
LINE
8
BLACK
6
CONTINUOUS
10
163.772
20
-118.016
11
163.784
21
-118.025
0
LINE
8
BLACK
6
CONTINUOUS
10
163.784
20
-118.025
11
163.793
21
-118.037
0
LINE
8
BLACK
6
CONTINUOUS
10
163.793
20
-118.037
11
163.8
21
-118.05
0
LINE
8
BLACK
6
CONTINUOUS
10
163.8
20
-118.05
11
163.804
21
-118.064
0
LINE
8
BLACK
6
CONTINUOUS
10
163.804
20
-118.064
11
163.805
21
-118.078
0
LINE
8
BLACK
6
CONTINUOUS
10
163.805
20
-118.078
11
163.805
21
-118.65
0
LINE
8
BLACK
6
CONTINUOUS
10
163.805
20
-118.65
11
163.805
21
-118.651
0
LINE
8
BLACK
6
CONTINUOUS
10
163.805
20
-118.651
11
163.804
21
-118.665
0
LINE
8
BLACK
6
CONTINUOUS
10
163.804
20
-118.665
11
163.799
21
-118.679
0
LINE
8
BLACK
6
CONTINUOUS
10
163.799
20
-118.679
11
163.792
21
-118.692
0
LINE
8
BLACK
6
CONTINUOUS
10
163.792
20
-118.692
11
163.783
21
-118.703
0
LINE
8
BLACK
6
CONTINUOUS
10
163.783
20
-118.703
11
163.771
21
-118.712
0
LINE
8
BLACK
6
CONTINUOUS
10
163.771
20
-118.712
11
163.758
21
-118.719
0
LINE
8
BLACK
6
CONTINUOUS
10
163.758
20
-118.719
11
163.744
21
-118.723
0
LINE
8
BLACK
6
CONTINUOUS
10
163.744
20
-118.723
11
163.73
21
-118.725
0
LINE
8
BLACK
6
CONTINUOUS
10
163.73
20
-118.725
11
163.715
21
-118.723
0
LINE
8
BLACK
6
CONTINUOUS
10
163.715
20
-118.723
11
163.701
21
-118.719
0
LINE
8
BLACK
6
CONTINUOUS
10
163.701
20
-118.719
11
163.688
21
-118.712
0
LINE
8
BLACK
6
CONTINUOUS
10
163.688
20
-118.712
11
163.677
21
-118.703
0
LINE
8
BLACK
6
CONTINUOUS
10
163.677
20
-118.703
11
163.668
21
-118.691
0
LINE
8
BLACK
6
CONTINUOUS
10
163.668
20
-118.691
11
163.661
21
-118.678
0
LINE
8
BLACK
6
CONTINUOUS
10
163.661
20
-118.678
11
163.657
21
-118.664
0
LINE
8
BLACK
6
CONTINUOUS
10
163.657
20
-118.664
11
163.655
21
-118.65
0
LINE
8
BLACK
6
CONTINUOUS
10
163.655
20
-118.65
11
163.655
21
-118.439
0
LINE
8
BLACK
6
CONTINUOUS
10
163.655
20
-118.439
11
162.73
21
-118.439
0
LINE
8
BLACK
6
CONTINUOUS
10
162.73
20
-118.439
11
162.729
21
-118.439
0
LINE
8
BLACK
6
CONTINUOUS
10
162.729
20
-118.439
11
162.729
21
-118.439
0
LINE
8
BLACK
6
CONTINUOUS
10
162.729
20
-118.439
11
162.729
21
-118.439
0
LINE
8
BLACK
6
CONTINUOUS
10
162.729
20
-118.439
11
162.729
21
-118.439
0
LINE
8
BLACK
6
CONTINUOUS
10
162.729
20
-118.439
11
162.722
21
-118.438
0
LINE
8
BLACK
6
CONTINUOUS
10
162.722
20
-118.438
11
162.715
21
-118.437
0
LINE
8
BLACK
6
CONTINUOUS
10
162.715
20
-118.437
11
162.715
21
-118.437
0
LINE
8
BLACK
6
CONTINUOUS
10
162.715
20
-118.437
11
162.715
21
-118.437
0
LINE
8
BLACK
6
CONTINUOUS
10
162.715
20
-118.437
11
162.708
21
-118.435
0
LINE
8
BLACK
6
CONTINUOUS
10
162.708
20
-118.435
11
162.701
21
-118.433
0
LINE
8
BLACK
6
CONTINUOUS
10
162.701
20
-118.433
11
162.701
21
-118.433
0
LINE
8
BLACK
6
CONTINUOUS
10
162.701
20
-118.433
11
162.701
21
-118.433
0
LINE
8
BLACK
6
CONTINUOUS
10
162.701
20
-118.433
11
162.694
21
-118.429
0
LINE
8
BLACK
6
CONTINUOUS
10
162.694
20
-118.429
11
162.688
21
-118.426
0
LINE
8
BLACK
6
CONTINUOUS
10
162.688
20
-118.426
11
162.688
21
-118.426
0
LINE
8
BLACK
6
CONTINUOUS
10
162.688
20
-118.426
11
162.688
21
-118.426
0
LINE
8
BLACK
6
CONTINUOUS
10
162.688
20
-118.426
11
162.682
21
-118.421
0
LINE
8
BLACK
6
CONTINUOUS
10
162.682
20
-118.421
11
162.677
21
-118.417
0
LINE
8
BLACK
6
CONTINUOUS
10
162.677
20
-118.417
11
162.677
21
-118.416
0
LINE
8
BLACK
6
CONTINUOUS
10
162.677
20
-118.416
11
162.677
21
-118.416
0
LINE
8
BLACK
6
CONTINUOUS
10
162.677
20
-118.416
11
162.672
21
-118.411
0
LINE
8
BLACK
6
CONTINUOUS
10
162.672
20
-118.411
11
162.668
21
-118.405
0
LINE
8
BLACK
6
CONTINUOUS
10
162.668
20
-118.405
11
162.668
21
-118.405
0
LINE
8
BLACK
6
CONTINUOUS
10
162.668
20
-118.405
11
162.668
21
-118.405
0
LINE
8
BLACK
6
CONTINUOUS
10
162.668
20
-118.405
11
162.664
21
-118.399
0
LINE
8
BLACK
6
CONTINUOUS
10
162.664
20
-118.399
11
162.661
21
-118.392
0
LINE
8
BLACK
6
CONTINUOUS
10
162.661
20
-118.392
11
162.661
21
-118.392
0
LINE
8
BLACK
6
CONTINUOUS
10
162.661
20
-118.392
11
162.661
21
-118.392
0
LINE
8
BLACK
6
CONTINUOUS
10
162.661
20
-118.392
11
162.659
21
-118.385
0
LINE
8
BLACK
6
CONTINUOUS
10
162.659
20
-118.385
11
162.657
21
-118.378
0
LINE
8
BLACK
6
CONTINUOUS
10
162.657
20
-118.378
11
162.657
21
-118.378
0
LINE
8
BLACK
6
CONTINUOUS
10
162.657
20
-118.378
11
162.657
21
-118.378
0
LINE
8
BLACK
6
CONTINUOUS
10
162.657
20
-118.378
11
162.656
21
-118.371
0
LINE
8
BLACK
6
CONTINUOUS
10
162.656
20
-118.371
11
162.655
21
-118.364
0
LINE
8
BLACK
6
CONTINUOUS
10
162.655
20
-118.364
11
162.655
21
-118.363
0
LINE
8
BLACK
6
CONTINUOUS
10
162.655
20
-118.363
11
162.655
21
-118.363
0
LINE
8
BLACK
6
CONTINUOUS
10
162.655
20
-118.363
11
162.656
21
-118.356
0
LINE
8
BLACK
6
CONTINUOUS
10
162.656
20
-118.356
11
162.657
21
-118.349
0
LINE
8
BLACK
6
CONTINUOUS
10
162.657
20
-118.349
11
162.657
21
-118.349
0
LINE
8
BLACK
6
CONTINUOUS
10
162.657
20
-118.349
11
162.657
21
-118.349
0
LINE
8
BLACK
6
CONTINUOUS
10
162.657
20
-118.349
11
162.659
21
-118.342
0
LINE
8
BLACK
6
CONTINUOUS
10
162.659
20
-118.342
11
162.661
21
-118.335
0
LINE
8
BLACK
6
CONTINUOUS
10
162.661
20
-118.335
11
162.661
21
-118.335
0
LINE
8
BLACK
6
CONTINUOUS
10
162.661
20
-118.335
11
162.661
21
-118.335
0
LINE
8
BLACK
6
CONTINUOUS
10
162.661
20
-118.335
11
162.665
21
-118.328
0
LINE
8
BLACK
6
CONTINUOUS
10
162.665
20
-118.328
11
162.668
21
-118.322
0
LINE
8
BLACK
6
CONTINUOUS
10
162.668
20
-118.322
11
162.668
21
-118.322
0
LINE
8
BLACK
6
CONTINUOUS
10
162.668
20
-118.322
11
162.668
21
-118.322
0
LINE
8
BLACK
6
CONTINUOUS
10
162.668
20
-118.322
11
162.673
21
-118.316
0
LINE
8
BLACK
6
CONTINUOUS
10
162.673
20
-118.316
11
162.677
21
-118.311
0
LINE
8
BLACK
6
CONTINUOUS
10
162.677
20
-118.311
11
162.677
21
-118.311
0
LINE
8
BLACK
6
CONTINUOUS
10
162.677
20
-118.311
11
162.678
21
-118.311
0
LINE
8
BLACK
6
CONTINUOUS
10
162.678
20
-118.311
11
162.683
21
-118.306
0
LINE
8
BLACK
6
CONTINUOUS
10
162.683
20
-118.306
11
162.689
21
-118.302
0
LINE
8
BLACK
6
CONTINUOUS
10
162.689
20
-118.302
11
162.825
21
-118.21
0
LINE
8
BLACK
6
CONTINUOUS
10
162.825
20
-118.21
11
162.907
21
-118.129
0
LINE
8
BLACK
6
CONTINUOUS
10
162.907
20
-118.129
11
162.949
21
-118.045
0
LINE
8
BLACK
6
CONTINUOUS
10
162.949
20
-118.045
11
162.949
21
-118.044
0
LINE
8
BLACK
6
CONTINUOUS
10
162.949
20
-118.044
11
162.957
21
-118.031
0
LINE
8
BLACK
6
CONTINUOUS
10
162.957
20
-118.031
11
162.968
21
-118.021
0
LINE
8
BLACK
6
CONTINUOUS
10
162.968
20
-118.021
11
162.98
21
-118.013
0
LINE
8
BLACK
6
CONTINUOUS
10
162.98
20
-118.013
11
162.993
21
-118.007
0
LINE
8
BLACK
6
CONTINUOUS
10
162.993
20
-118.007
11
163.007
21
-118.004
0
LINE
8
BLACK
6
CONTINUOUS
10
163.007
20
-118.004
11
163.022
21
-118.003
0
LINE
8
BLACK
6
CONTINUOUS
10
163.022
20
-118.003
11
163.036
21
-118.006
0
LINE
8
BLACK
6
CONTINUOUS
10
163.036
20
-118.006
11
163.05
21
-118.011
0
LINE
8
BLACK
6
CONTINUOUS
10
163.05
20
-118.011
11
163.062
21
-118.019
0
LINE
8
BLACK
6
CONTINUOUS
10
163.062
20
-118.019
11
163.073
21
-118.029
0
LINE
8
BLACK
6
CONTINUOUS
10
163.073
20
-118.029
11
163.081
21
-118.041
0
LINE
8
BLACK
6
CONTINUOUS
10
163.081
20
-118.041
11
163.087
21
-118.055
0
LINE
8
BLACK
6
CONTINUOUS
10
163.087
20
-118.055
11
163.091
21
-118.069
0
LINE
8
BLACK
6
CONTINUOUS
10
163.091
20
-118.069
11
163.091
21
-118.084
0
LINE
8
BLACK
6
CONTINUOUS
10
163.091
20
-118.084
11
163.088
21
-118.098
0
LINE
8
BLACK
6
CONTINUOUS
10
163.088
20
-118.098
11
163.083
21
-118.112
0
LINE
8
BLACK
6
CONTINUOUS
10
163.083
20
-118.112
11
163.036
21
-118.207
0
LINE
8
BLACK
6
CONTINUOUS
10
163.036
20
-118.207
11
163.035
21
-118.208
0
LINE
8
BLACK
6
CONTINUOUS
10
163.035
20
-118.208
11
163.033
21
-118.211
0
LINE
8
BLACK
6
CONTINUOUS
10
163.033
20
-118.211
11
163.031
21
-118.215
0
LINE
8
BLACK
6
CONTINUOUS
10
163.031
20
-118.215
11
163.029
21
-118.218
0
LINE
8
BLACK
6
CONTINUOUS
10
163.029
20
-118.218
11
163.027
21
-118.22
0
LINE
8
BLACK
6
CONTINUOUS
10
163.027
20
-118.22
11
163.024
21
-118.223
0
LINE
8
BLACK
6
CONTINUOUS
10
163.024
20
-118.223
11
163.022
21
-118.227
0
LINE
8
BLACK
6
CONTINUOUS
10
163.022
20
-118.227
11
162.959
21
-118.289
0
LINE
8
BLACK
6
CONTINUOUS
10
162.959
20
-118.289
11
163.655
21
-118.289
0
LINE
8
BLACK
6
CONTINUOUS
10
163.655
20
-118.289
11
163.655
21
-118.078
0
LINE
8
BLACK
6
CONTINUOUS
10
163.655
20
-118.078
11
163.655
21
-118.077
0
LINE
8
BLACK
6
CONTINUOUS
10
163.655
20
-118.077
11
163.657
21
-118.063
0
LINE
8
BLACK
6
CONTINUOUS
10
163.657
20
-118.063
11
163.661
21
-118.049
0
LINE
8
BLACK
6
CONTINUOUS
10
163.661
20
-118.049
11
163.668
21
-118.036
0
LINE
8
BLACK
6
CONTINUOUS
10
163.668
20
-118.036
11
163.678
21
-118.025
0
LINE
8
BLACK
6
CONTINUOUS
10
163.678
20
-118.025
11
163.689
21
-118.015
0
LINE
8
BLACK
6
CONTINUOUS
10
163.689
20
-118.015
11
163.702
21
-118.009
0
LINE
8
BLACK
6
CONTINUOUS
10
163.702
20
-118.009
11
163.716
21
-118.005
0
LINE
8
BLACK
6
CONTINUOUS
10
163.716
20
-118.005
11
163.731
21
-118.003
0
LINE
8
BLACK
6
CONTINUOUS
10
163.731
20
-118.003
11
163.745
21
-118.005
0
LINE
8
BLACK
6
CONTINUOUS
10
164.281
20
-116.593
11
165.611
21
-116.593
0
LINE
8
BLACK
6
CONTINUOUS
10
165.611
20
-116.593
11
165.62
21
-116.594
0
LINE
8
BLACK
6
CONTINUOUS
10
165.62
20
-116.594
11
165.631
21
-116.597
0
LINE
8
BLACK
6
CONTINUOUS
10
165.631
20
-116.597
11
165.641
21
-116.603
0
LINE
8
BLACK
6
CONTINUOUS
10
165.641
20
-116.603
11
165.651
21
-116.61
0
LINE
8
BLACK
6
CONTINUOUS
10
165.651
20
-116.61
11
165.658
21
-116.62
0
LINE
8
BLACK
6
CONTINUOUS
10
165.658
20
-116.62
11
165.664
21
-116.63
0
LINE
8
BLACK
6
CONTINUOUS
10
165.664
20
-116.63
11
165.667
21
-116.641
0
LINE
8
BLACK
6
CONTINUOUS
10
165.667
20
-116.641
11
165.668
21
-116.653
0
LINE
8
BLACK
6
CONTINUOUS
10
165.668
20
-116.653
11
165.667
21
-116.665
0
LINE
8
BLACK
6
CONTINUOUS
10
165.667
20
-116.665
11
165.664
21
-116.676
0
LINE
8
BLACK
6
CONTINUOUS
10
165.664
20
-116.676
11
165.658
21
-116.686
0
LINE
8
BLACK
6
CONTINUOUS
10
165.658
20
-116.686
11
165.651
21
-116.696
0
LINE
8
BLACK
6
CONTINUOUS
10
165.651
20
-116.696
11
165.641
21
-116.703
0
LINE
8
BLACK
6
CONTINUOUS
10
165.641
20
-116.703
11
165.631
21
-116.709
0
LINE
8
BLACK
6
CONTINUOUS
10
165.631
20
-116.709
11
165.62
21
-116.712
0
LINE
8
BLACK
6
CONTINUOUS
10
165.62
20
-116.712
11
165.611
21
-116.713
0
LINE
8
BLACK
6
CONTINUOUS
10
165.611
20
-116.713
11
164.338
21
-116.713
0
LINE
8
BLACK
6
CONTINUOUS
10
164.338
20
-116.713
11
164.338
21
-117.986
0
LINE
8
BLACK
6
CONTINUOUS
10
164.338
20
-117.986
11
164.337
21
-117.995
0
LINE
8
BLACK
6
CONTINUOUS
10
164.337
20
-117.995
11
164.334
21
-118.006
0
LINE
8
BLACK
6
CONTINUOUS
10
164.334
20
-118.006
11
164.328
21
-118.016
0
LINE
8
BLACK
6
CONTINUOUS
10
164.328
20
-118.016
11
164.321
21
-118.026
0
LINE
8
BLACK
6
CONTINUOUS
10
164.321
20
-118.026
11
164.311
21
-118.033
0
LINE
8
BLACK
6
CONTINUOUS
10
164.311
20
-118.033
11
164.301
21
-118.039
0
LINE
8
BLACK
6
CONTINUOUS
10
164.301
20
-118.039
11
164.29
21
-118.042
0
LINE
8
BLACK
6
CONTINUOUS
10
164.29
20
-118.042
11
164.278
21
-118.043
0
LINE
8
BLACK
6
CONTINUOUS
10
164.278
20
-118.043
11
164.266
21
-118.042
0
LINE
8
BLACK
6
CONTINUOUS
10
164.266
20
-118.042
11
164.255
21
-118.039
0
LINE
8
BLACK
6
CONTINUOUS
10
164.255
20
-118.039
11
164.245
21
-118.033
0
LINE
8
BLACK
6
CONTINUOUS
10
164.245
20
-118.033
11
164.235
21
-118.026
0
LINE
8
BLACK
6
CONTINUOUS
10
164.235
20
-118.026
11
164.228
21
-118.016
0
LINE
8
BLACK
6
CONTINUOUS
10
164.228
20
-118.016
11
164.222
21
-118.006
0
LINE
8
BLACK
6
CONTINUOUS
10
164.222
20
-118.006
11
164.219
21
-117.995
0
LINE
8
BLACK
6
CONTINUOUS
10
164.219
20
-117.995
11
164.218
21
-117.986
0
LINE
8
BLACK
6
CONTINUOUS
10
164.218
20
-117.986
11
164.218
21
-116.656
0
LINE
8
BLACK
6
CONTINUOUS
10
164.218
20
-116.656
11
164.218
21
-116.653
0
LINE
8
BLACK
6
CONTINUOUS
10
164.218
20
-116.653
11
164.219
21
-116.641
0
LINE
8
BLACK
6
CONTINUOUS
10
164.219
20
-116.641
11
164.222
21
-116.63
0
LINE
8
BLACK
6
CONTINUOUS
10
164.222
20
-116.63
11
164.228
21
-116.62
0
LINE
8
BLACK
6
CONTINUOUS
10
164.228
20
-116.62
11
164.235
21
-116.61
0
LINE
8
BLACK
6
CONTINUOUS
10
164.235
20
-116.61
11
164.245
21
-116.603
0
LINE
8
BLACK
6
CONTINUOUS
10
164.245
20
-116.603
11
164.255
21
-116.597
0
LINE
8
BLACK
6
CONTINUOUS
10
164.255
20
-116.597
11
164.266
21
-116.594
0
LINE
8
BLACK
6
CONTINUOUS
10
164.266
20
-116.594
11
164.275
21
-116.593
0
LINE
8
BLACK
6
CONTINUOUS
10
164.275
20
-116.593
11
164.278
21
-116.593
0
LINE
8
BLACK
6
CONTINUOUS
10
164.278
20
-116.593
11
164.281
21
-116.593
0
LINE
8
BLACK
6
CONTINUOUS
10
163.745
20
-117.195
11
163.759
21
-117.2
0
LINE
8
BLACK
6
CONTINUOUS
10
163.759
20
-117.2
11
163.772
21
-117.207
0
LINE
8
BLACK
6
CONTINUOUS
10
163.772
20
-117.207
11
163.784
21
-117.216
0
LINE
8
BLACK
6
CONTINUOUS
10
163.784
20
-117.216
11
163.793
21
-117.227
0
LINE
8
BLACK
6
CONTINUOUS
10
163.793
20
-117.227
11
163.8
21
-117.24
0
LINE
8
BLACK
6
CONTINUOUS
10
163.8
20
-117.24
11
163.804
21
-117.254
0
LINE
8
BLACK
6
CONTINUOUS
10
163.804
20
-117.254
11
163.805
21
-117.269
0
LINE
8
BLACK
6
CONTINUOUS
10
163.805
20
-117.269
11
163.805
21
-117.364
0
LINE
8
BLACK
6
CONTINUOUS
10
163.805
20
-117.364
11
163.805
21
-117.365
0
LINE
8
BLACK
6
CONTINUOUS
10
163.805
20
-117.365
11
163.805
21
-117.369
0
LINE
8
BLACK
6
CONTINUOUS
10
163.805
20
-117.369
11
163.805
21
-117.373
0
LINE
8
BLACK
6
CONTINUOUS
10
163.805
20
-117.373
11
163.804
21
-117.376
0
LINE
8
BLACK
6
CONTINUOUS
10
163.804
20
-117.376
11
163.804
21
-117.38
0
LINE
8
BLACK
6
CONTINUOUS
10
163.804
20
-117.38
11
163.802
21
-117.384
0
LINE
8
BLACK
6
CONTINUOUS
10
163.802
20
-117.384
11
163.802
21
-117.388
0
LINE
8
BLACK
6
CONTINUOUS
10
163.802
20
-117.388
11
163.754
21
-117.531
0
LINE
8
BLACK
6
CONTINUOUS
10
163.754
20
-117.531
11
163.754
21
-117.532
0
LINE
8
BLACK
6
CONTINUOUS
10
163.754
20
-117.532
11
163.753
21
-117.534
0
LINE
8
BLACK
6
CONTINUOUS
10
163.753
20
-117.534
11
163.752
21
-117.536
0
LINE
8
BLACK
6
CONTINUOUS
10
163.752
20
-117.536
11
163.75
21
-117.54
0
LINE
8
BLACK
6
CONTINUOUS
10
163.75
20
-117.54
11
163.747
21
-117.545
0
LINE
8
BLACK
6
CONTINUOUS
10
163.747
20
-117.545
11
163.746
21
-117.547
0
LINE
8
BLACK
6
CONTINUOUS
10
163.746
20
-117.547
11
163.745
21
-117.549
0
LINE
8
BLACK
6
CONTINUOUS
10
163.745
20
-117.549
11
163.742
21
-117.552
0
LINE
8
BLACK
6
CONTINUOUS
10
163.742
20
-117.552
11
163.739
21
-117.557
0
LINE
8
BLACK
6
CONTINUOUS
10
163.739
20
-117.557
11
163.737
21
-117.558
0
LINE
8
BLACK
6
CONTINUOUS
10
163.737
20
-117.558
11
163.736
21
-117.56
0
LINE
8
BLACK
6
CONTINUOUS
10
163.736
20
-117.56
11
163.641
21
-117.655
0
LINE
8
BLACK
6
CONTINUOUS
10
163.641
20
-117.655
11
163.64
21
-117.656
0
LINE
8
BLACK
6
CONTINUOUS
10
163.64
20
-117.656
11
163.638
21
-117.657
0
LINE
8
BLACK
6
CONTINUOUS
10
163.638
20
-117.657
11
163.637
21
-117.659
0
LINE
8
BLACK
6
CONTINUOUS
10
163.637
20
-117.659
11
163.632
21
-117.662
0
LINE
8
BLACK
6
CONTINUOUS
10
163.632
20
-117.662
11
163.628
21
-117.665
0
LINE
8
BLACK
6
CONTINUOUS
10
163.628
20
-117.665
11
163.626
21
-117.666
0
LINE
8
BLACK
6
CONTINUOUS
10
163.626
20
-117.666
11
163.625
21
-117.667
0
LINE
8
BLACK
6
CONTINUOUS
10
163.625
20
-117.667
11
163.62
21
-117.669
0
LINE
8
BLACK
6
CONTINUOUS
10
163.62
20
-117.669
11
163.615
21
-117.672
0
LINE
8
BLACK
6
CONTINUOUS
10
163.615
20
-117.672
11
163.613
21
-117.672
0
LINE
8
BLACK
6
CONTINUOUS
10
163.613
20
-117.672
11
163.611
21
-117.673
0
LINE
8
BLACK
6
CONTINUOUS
10
163.611
20
-117.673
11
163.468
21
-117.721
0
LINE
8
BLACK
6
CONTINUOUS
10
163.468
20
-117.721
11
163.467
21
-117.721
0
LINE
8
BLACK
6
CONTINUOUS
10
163.467
20
-117.721
11
163.463
21
-117.722
0
LINE
8
BLACK
6
CONTINUOUS
10
163.463
20
-117.722
11
163.459
21
-117.723
0
LINE
8
BLACK
6
CONTINUOUS
10
163.459
20
-117.723
11
163.456
21
-117.724
0
LINE
8
BLACK
6
CONTINUOUS
10
163.456
20
-117.724
11
163.453
21
-117.724
0
LINE
8
BLACK
6
CONTINUOUS
10
163.453
20
-117.724
11
163.449
21
-117.724
0
LINE
8
BLACK
6
CONTINUOUS
10
163.449
20
-117.724
11
163.445
21
-117.725
0
LINE
8
BLACK
6
CONTINUOUS
10
163.445
20
-117.725
11
162.73
21
-117.725
0
LINE
8
BLACK
6
CONTINUOUS
10
162.73
20
-117.725
11
162.729
21
-117.725
0
LINE
8
BLACK
6
CONTINUOUS
10
162.729
20
-117.725
11
162.715
21
-117.723
0
LINE
8
BLACK
6
CONTINUOUS
10
162.715
20
-117.723
11
162.701
21
-117.719
0
LINE
8
BLACK
6
CONTINUOUS
10
162.701
20
-117.719
11
162.688
21
-117.712
0
LINE
8
BLACK
6
CONTINUOUS
10
162.688
20
-117.712
11
162.677
21
-117.702
0
LINE
8
BLACK
6
CONTINUOUS
10
162.677
20
-117.702
11
162.668
21
-117.691
0
LINE
8
BLACK
6
CONTINUOUS
10
162.668
20
-117.691
11
162.661
21
-117.678
0
LINE
8
BLACK
6
CONTINUOUS
10
162.661
20
-117.678
11
162.657
21
-117.664
0
LINE
8
BLACK
6
CONTINUOUS
10
162.657
20
-117.664
11
162.655
21
-117.649
0
LINE
8
BLACK
6
CONTINUOUS
10
162.655
20
-117.649
11
162.657
21
-117.635
0
LINE
8
BLACK
6
CONTINUOUS
10
162.657
20
-117.635
11
162.661
21
-117.621
0
LINE
8
BLACK
6
CONTINUOUS
10
162.661
20
-117.621
11
162.668
21
-117.608
0
LINE
8
BLACK
6
CONTINUOUS
10
162.668
20
-117.608
11
162.678
21
-117.596
0
LINE
8
BLACK
6
CONTINUOUS
10
162.678
20
-117.596
11
162.689
21
-117.587
0
LINE
8
BLACK
6
CONTINUOUS
10
162.689
20
-117.587
11
162.702
21
-117.58
0
LINE
8
BLACK
6
CONTINUOUS
10
162.702
20
-117.58
11
162.716
21
-117.576
0
LINE
8
BLACK
6
CONTINUOUS
10
162.716
20
-117.576
11
162.73
21
-117.575
0
LINE
8
BLACK
6
CONTINUOUS
10
162.73
20
-117.575
11
163.432
21
-117.575
0
LINE
8
BLACK
6
CONTINUOUS
10
163.432
20
-117.575
11
163.547
21
-117.536
0
LINE
8
BLACK
6
CONTINUOUS
10
163.547
20
-117.536
11
163.617
21
-117.466
0
LINE
8
BLACK
6
CONTINUOUS
10
163.617
20
-117.466
11
163.655
21
-117.352
0
LINE
8
BLACK
6
CONTINUOUS
10
163.655
20
-117.352
11
163.655
21
-117.269
0
LINE
8
BLACK
6
CONTINUOUS
10
163.655
20
-117.269
11
163.655
21
-117.268
0
LINE
8
BLACK
6
CONTINUOUS
10
163.655
20
-117.268
11
163.657
21
-117.253
0
LINE
8
BLACK
6
CONTINUOUS
10
163.657
20
-117.253
11
163.661
21
-117.239
0
LINE
8
BLACK
6
CONTINUOUS
10
163.661
20
-117.239
11
163.668
21
-117.226
0
LINE
8
BLACK
6
CONTINUOUS
10
163.668
20
-117.226
11
163.678
21
-117.215
0
LINE
8
BLACK
6
CONTINUOUS
10
163.678
20
-117.215
11
163.689
21
-117.206
0
LINE
8
BLACK
6
CONTINUOUS
10
163.689
20
-117.206
11
163.702
21
-117.199
0
LINE
8
BLACK
6
CONTINUOUS
10
163.702
20
-117.199
11
163.716
21
-117.195
0
LINE
8
BLACK
6
CONTINUOUS
10
163.716
20
-117.195
11
163.731
21
-117.194
0
LINE
8
BLACK
6
CONTINUOUS
10
163.731
20
-117.194
11
163.745
21
-117.195
0
LINE
8
BLACK
6
CONTINUOUS
10
172.165
20
-87.9745
11
172.168
21
-87.9746
0
LINE
8
BLACK
6
CONTINUOUS
10
172.168
20
-87.9746
11
173.49
21
-88.074
0
LINE
8
BLACK
6
CONTINUOUS
10
173.49
20
-88.074
11
173.491
21
-88.0741
0
LINE
8
BLACK
6
CONTINUOUS
10
173.491
20
-88.0741
11
173.494
21
-88.0745
0
LINE
8
BLACK
6
CONTINUOUS
10
173.494
20
-88.0745
11
173.497
21
-88.075
0
LINE
8
BLACK
6
CONTINUOUS
10
173.497
20
-88.075
11
174.798
21
-88.3325
0
LINE
8
BLACK
6
CONTINUOUS
10
174.798
20
-88.3325
11
174.798
21
-88.3325
0
LINE
8
BLACK
6
CONTINUOUS
10
174.798
20
-88.3325
11
174.798
21
-88.3325
0
LINE
8
BLACK
6
CONTINUOUS
10
174.798
20
-88.3325
11
174.799
21
-88.3327
0
LINE
8
BLACK
6
CONTINUOUS
10
174.799
20
-88.3327
11
174.802
21
-88.3335
0
LINE
8
BLACK
6
CONTINUOUS
10
174.802
20
-88.3335
11
174.805
21
-88.3344
0
LINE
8
BLACK
6
CONTINUOUS
10
174.805
20
-88.3344
11
176.065
21
-88.7463
0
LINE
8
BLACK
6
CONTINUOUS
10
176.065
20
-88.7463
11
176.066
21
-88.7465
0
LINE
8
BLACK
6
CONTINUOUS
10
176.066
20
-88.7465
11
176.069
21
-88.7478
0
LINE
8
BLACK
6
CONTINUOUS
10
176.069
20
-88.7478
11
176.072
21
-88.749
0
LINE
8
BLACK
6
CONTINUOUS
10
176.072
20
-88.749
11
177.274
21
-89.3094
0
LINE
8
BLACK
6
CONTINUOUS
10
177.274
20
-89.3094
11
177.274
21
-89.3096
0
LINE
8
BLACK
6
CONTINUOUS
10
177.274
20
-89.3096
11
177.277
21
-89.3112
0
LINE
8
BLACK
6
CONTINUOUS
10
177.277
20
-89.3112
11
177.28
21
-89.3128
0
LINE
8
BLACK
6
CONTINUOUS
10
177.28
20
-89.3128
11
178.406
21
-90.0135
0
LINE
8
BLACK
6
CONTINUOUS
10
178.406
20
-90.0135
11
178.406
21
-90.0138
0
LINE
8
BLACK
6
CONTINUOUS
10
178.406
20
-90.0138
11
178.409
21
-90.0158
0
LINE
8
BLACK
6
CONTINUOUS
10
178.409
20
-90.0158
11
178.412
21
-90.0177
0
LINE
8
BLACK
6
CONTINUOUS
10
178.412
20
-90.0177
11
179.445
21
-90.8485
0
LINE
8
BLACK
6
CONTINUOUS
10
179.445
20
-90.8485
11
179.446
21
-90.8489
0
LINE
8
BLACK
6
CONTINUOUS
10
179.446
20
-90.8489
11
179.448
21
-90.8512
0
LINE
8
BLACK
6
CONTINUOUS
10
179.448
20
-90.8512
11
179.45
21
-90.8534
0
LINE
8
BLACK
6
CONTINUOUS
10
179.45
20
-90.8534
11
180.376
21
-91.8023
0
LINE
8
BLACK
6
CONTINUOUS
10
180.376
20
-91.8023
11
180.377
21
-91.8028
0
LINE
8
BLACK
6
CONTINUOUS
10
180.377
20
-91.8028
11
180.379
21
-91.8053
0
LINE
8
BLACK
6
CONTINUOUS
10
180.379
20
-91.8053
11
180.381
21
-91.8078
0
LINE
8
BLACK
6
CONTINUOUS
10
180.381
20
-91.8078
11
181.186
21
-92.8611
0
LINE
8
BLACK
6
CONTINUOUS
10
181.186
20
-92.8611
11
181.187
21
-92.8616
0
LINE
8
BLACK
6
CONTINUOUS
10
181.187
20
-92.8616
11
181.189
21
-92.8644
0
LINE
8
BLACK
6
CONTINUOUS
10
181.189
20
-92.8644
11
181.19
21
-92.8671
0
LINE
8
BLACK
6
CONTINUOUS
10
181.19
20
-92.8671
11
181.863
21
-94.0096
0
LINE
8
BLACK
6
CONTINUOUS
10
181.863
20
-94.0096
11
181.864
21
-94.0101
0
LINE
8
BLACK
6
CONTINUOUS
10
181.864
20
-94.0101
11
181.865
21
-94.0131
0
LINE
8
BLACK
6
CONTINUOUS
10
181.865
20
-94.0131
11
181.867
21
-94.016
0
LINE
8
BLACK
6
CONTINUOUS
10
181.867
20
-94.016
11
182.398
21
-95.2311
0
LINE
8
BLACK
6
CONTINUOUS
10
182.398
20
-95.2311
11
182.398
21
-95.2316
0
LINE
8
BLACK
6
CONTINUOUS
10
182.398
20
-95.2316
11
182.399
21
-95.2348
0
LINE
8
BLACK
6
CONTINUOUS
10
182.399
20
-95.2348
11
182.4
21
-95.2378
0
LINE
8
BLACK
6
CONTINUOUS
10
182.4
20
-95.2378
11
182.781
21
-96.5078
0
LINE
8
BLACK
6
CONTINUOUS
10
182.781
20
-96.5078
11
182.781
21
-96.5084
0
LINE
8
BLACK
6
CONTINUOUS
10
182.781
20
-96.5084
11
182.782
21
-96.5117
0
LINE
8
BLACK
6
CONTINUOUS
10
182.782
20
-96.5117
11
182.783
21
-96.5149
0
LINE
8
BLACK
6
CONTINUOUS
10
182.783
20
-96.5149
11
183.008
21
-97.8215
0
LINE
8
BLACK
6
CONTINUOUS
10
183.008
20
-97.8215
11
183.008
21
-97.8221
0
LINE
8
BLACK
6
CONTINUOUS
10
183.008
20
-97.8221
11
183.009
21
-97.8254
0
LINE
8
BLACK
6
CONTINUOUS
10
183.009
20
-97.8254
11
183.009
21
-97.8286
0
LINE
8
BLACK
6
CONTINUOUS
10
183.009
20
-97.8286
11
183.076
21
-99.1529
0
LINE
8
BLACK
6
CONTINUOUS
10
183.076
20
-99.1529
11
183.076
21
-99.1535
0
LINE
8
BLACK
6
CONTINUOUS
10
183.076
20
-99.1535
11
183.076
21
-99.1568
0
LINE
8
BLACK
6
CONTINUOUS
10
183.076
20
-99.1568
11
183.076
21
-99.1601
0
LINE
8
BLACK
6
CONTINUOUS
10
183.076
20
-99.1601
11
182.984
21
-100.483
0
LINE
8
BLACK
6
CONTINUOUS
10
182.984
20
-100.483
11
182.984
21
-100.483
0
LINE
8
BLACK
6
CONTINUOUS
10
182.984
20
-100.483
11
182.983
21
-100.487
0
LINE
8
BLACK
6
CONTINUOUS
10
182.983
20
-100.487
11
182.983
21
-100.49
0
LINE
8
BLACK
6
CONTINUOUS
10
182.983
20
-100.49
11
182.732
21
-101.792
0
LINE
8
BLACK
6
CONTINUOUS
10
182.732
20
-101.792
11
182.732
21
-101.793
0
LINE
8
BLACK
6
CONTINUOUS
10
182.732
20
-101.793
11
182.731
21
-101.796
0
LINE
8
BLACK
6
CONTINUOUS
10
182.731
20
-101.796
11
182.73
21
-101.799
0
LINE
8
BLACK
6
CONTINUOUS
10
182.73
20
-101.799
11
182.325
21
-103.061
0
LINE
8
BLACK
6
CONTINUOUS
10
182.325
20
-103.061
11
182.325
21
-103.062
0
LINE
8
BLACK
6
CONTINUOUS
10
182.325
20
-103.062
11
182.323
21
-103.065
0
LINE
8
BLACK
6
CONTINUOUS
10
182.323
20
-103.065
11
182.322
21
-103.068
0
LINE
8
BLACK
6
CONTINUOUS
10
182.322
20
-103.068
11
181.768
21
-104.273
0
LINE
8
BLACK
6
CONTINUOUS
10
181.768
20
-104.273
11
181.768
21
-104.273
0
LINE
8
BLACK
6
CONTINUOUS
10
181.768
20
-104.273
11
181.766
21
-104.276
0
LINE
8
BLACK
6
CONTINUOUS
10
181.766
20
-104.276
11
181.765
21
-104.279
0
LINE
8
BLACK
6
CONTINUOUS
10
181.765
20
-104.279
11
181.07
21
-105.408
0
LINE
8
BLACK
6
CONTINUOUS
10
181.07
20
-105.408
11
181.07
21
-105.409
0
LINE
8
BLACK
6
CONTINUOUS
10
181.07
20
-105.409
11
181.068
21
-105.412
0
LINE
8
BLACK
6
CONTINUOUS
10
181.068
20
-105.412
11
181.066
21
-105.414
0
LINE
8
BLACK
6
CONTINUOUS
10
181.066
20
-105.414
11
180.24
21
-106.452
0
LINE
8
BLACK
6
CONTINUOUS
10
180.24
20
-106.452
11
180.24
21
-106.452
0
LINE
8
BLACK
6
CONTINUOUS
10
180.24
20
-106.452
11
180.238
21
-106.455
0
LINE
8
BLACK
6
CONTINUOUS
10
180.238
20
-106.455
11
180.236
21
-106.457
0
LINE
8
BLACK
6
CONTINUOUS
10
180.236
20
-106.457
11
179.291
21
-107.388
0
LINE
8
BLACK
6
CONTINUOUS
10
179.291
20
-107.388
11
179.291
21
-107.389
0
LINE
8
BLACK
6
CONTINUOUS
10
179.291
20
-107.389
11
179.288
21
-107.391
0
LINE
8
BLACK
6
CONTINUOUS
10
179.288
20
-107.391
11
179.286
21
-107.393
0
LINE
8
BLACK
6
CONTINUOUS
10
179.286
20
-107.393
11
178.237
21
-108.204
0
LINE
8
BLACK
6
CONTINUOUS
10
178.237
20
-108.204
11
178.236
21
-108.204
0
LINE
8
BLACK
6
CONTINUOUS
10
178.236
20
-108.204
11
178.234
21
-108.206
0
LINE
8
BLACK
6
CONTINUOUS
10
178.234
20
-108.206
11
178.231
21
-108.208
0
LINE
8
BLACK
6
CONTINUOUS
10
178.231
20
-108.208
11
177.092
21
-108.887
0
LINE
8
BLACK
6
CONTINUOUS
10
177.092
20
-108.887
11
177.091
21
-108.887
0
LINE
8
BLACK
6
CONTINUOUS
10
177.091
20
-108.887
11
177.088
21
-108.889
0
LINE
8
BLACK
6
CONTINUOUS
10
177.088
20
-108.889
11
177.086
21
-108.89
0
LINE
8
BLACK
6
CONTINUOUS
10
177.086
20
-108.89
11
176.06
21
-109.345
0
LINE
8
BLACK
6
CONTINUOUS
10
176.06
20
-109.345
11
176.06
21
-109.347
0
LINE
8
BLACK
6
CONTINUOUS
10
176.06
20
-109.347
11
176.06
21
-112.747
0
LINE
8
BLACK
6
CONTINUOUS
10
176.06
20
-112.747
11
176.06
21
-112.75
0
LINE
8
BLACK
6
CONTINUOUS
10
176.06
20
-112.75
11
176.059
21
-112.762
0
LINE
8
BLACK
6
CONTINUOUS
10
176.059
20
-112.762
11
176.056
21
-112.773
0
LINE
8
BLACK
6
CONTINUOUS
10
176.056
20
-112.773
11
176.05
21
-112.783
0
LINE
8
BLACK
6
CONTINUOUS
10
176.05
20
-112.783
11
176.043
21
-112.793
0
LINE
8
BLACK
6
CONTINUOUS
10
176.043
20
-112.793
11
176.033
21
-112.8
0
LINE
8
BLACK
6
CONTINUOUS
10
176.033
20
-112.8
11
176.023
21
-112.806
0
LINE
8
BLACK
6
CONTINUOUS
10
176.023
20
-112.806
11
176.012
21
-112.809
0
LINE
8
BLACK
6
CONTINUOUS
10
176.012
20
-112.809
11
176.003
21
-112.81
0
LINE
8
BLACK
6
CONTINUOUS
10
176.003
20
-112.81
11
176.003
21
-112.81
0
LINE
8
BLACK
6
CONTINUOUS
10
176.003
20
-112.81
11
176
21
-112.81
0
LINE
8
BLACK
6
CONTINUOUS
10
176
20
-112.81
11
175.997
21
-112.81
0
LINE
8
BLACK
6
CONTINUOUS
10
175.997
20
-112.81
11
168.003
21
-112.81
0
LINE
8
BLACK
6
CONTINUOUS
10
168.003
20
-112.81
11
168
21
-112.81
0
LINE
8
BLACK
6
CONTINUOUS
10
168
20
-112.81
11
167.988
21
-112.809
0
LINE
8
BLACK
6
CONTINUOUS
10
167.988
20
-112.809
11
167.977
21
-112.806
0
LINE
8
BLACK
6
CONTINUOUS
10
167.977
20
-112.806
11
167.967
21
-112.8
0
LINE
8
BLACK
6
CONTINUOUS
10
167.967
20
-112.8
11
167.957
21
-112.793
0
LINE
8
BLACK
6
CONTINUOUS
10
167.957
20
-112.793
11
167.95
21
-112.783
0
LINE
8
BLACK
6
CONTINUOUS
10
167.95
20
-112.783
11
167.944
21
-112.773
0
LINE
8
BLACK
6
CONTINUOUS
10
167.944
20
-112.773
11
167.941
21
-112.762
0
LINE
8
BLACK
6
CONTINUOUS
10
167.941
20
-112.762
11
167.94
21
-112.75
0
LINE
8
BLACK
6
CONTINUOUS
10
167.94
20
-112.75
11
167.94
21
-112.747
0
LINE
8
BLACK
6
CONTINUOUS
10
167.94
20
-112.747
11
167.94
21
-109.349
0
LINE
8
BLACK
6
CONTINUOUS
10
167.94
20
-109.349
11
167.827
21
-109.311
0
LINE
8
BLACK
6
CONTINUOUS
10
167.827
20
-109.311
11
167.826
21
-109.31
0
LINE
8
BLACK
6
CONTINUOUS
10
167.826
20
-109.31
11
167.823
21
-109.309
0
LINE
8
BLACK
6
CONTINUOUS
10
167.823
20
-109.309
11
167.82
21
-109.308
0
LINE
8
BLACK
6
CONTINUOUS
10
167.82
20
-109.308
11
166.624
21
-108.735
0
LINE
8
BLACK
6
CONTINUOUS
10
166.624
20
-108.735
11
166.624
21
-108.735
0
LINE
8
BLACK
6
CONTINUOUS
10
166.624
20
-108.735
11
166.621
21
-108.733
0
LINE
8
BLACK
6
CONTINUOUS
10
166.621
20
-108.733
11
166.618
21
-108.731
0
LINE
8
BLACK
6
CONTINUOUS
10
166.618
20
-108.731
11
165.5
21
-108.019
0
LINE
8
BLACK
6
CONTINUOUS
10
165.5
20
-108.019
11
165.499
21
-108.019
0
LINE
8
BLACK
6
CONTINUOUS
10
165.499
20
-108.019
11
165.497
21
-108.017
0
LINE
8
BLACK
6
CONTINUOUS
10
165.497
20
-108.017
11
165.494
21
-108.015
0
LINE
8
BLACK
6
CONTINUOUS
10
165.494
20
-108.015
11
164.469
21
-107.173
0
LINE
8
BLACK
6
CONTINUOUS
10
164.469
20
-107.173
11
164.469
21
-107.173
0
LINE
8
BLACK
6
CONTINUOUS
10
164.469
20
-107.173
11
164.467
21
-107.17
0
LINE
8
BLACK
6
CONTINUOUS
10
164.467
20
-107.17
11
164.464
21
-107.168
0
LINE
8
BLACK
6
CONTINUOUS
10
164.464
20
-107.168
11
163.548
21
-106.21
0
LINE
8
BLACK
6
CONTINUOUS
10
163.548
20
-106.21
11
163.548
21
-106.209
0
LINE
8
BLACK
6
CONTINUOUS
10
163.548
20
-106.209
11
163.546
21
-106.207
0
LINE
8
BLACK
6
CONTINUOUS
10
163.546
20
-106.207
11
163.543
21
-106.204
0
LINE
8
BLACK
6
CONTINUOUS
10
163.543
20
-106.204
11
162.749
21
-105.142
0
LINE
8
BLACK
6
CONTINUOUS
10
162.749
20
-105.142
11
162.749
21
-105.142
0
LINE
8
BLACK
6
CONTINUOUS
10
162.749
20
-105.142
11
162.747
21
-105.139
0
LINE
8
BLACK
6
CONTINUOUS
10
162.747
20
-105.139
11
162.745
21
-105.136
0
LINE
8
BLACK
6
CONTINUOUS
10
162.745
20
-105.136
11
162.084
21
-103.987
0
LINE
8
BLACK
6
CONTINUOUS
10
162.084
20
-103.987
11
162.084
21
-103.986
0
LINE
8
BLACK
6
CONTINUOUS
10
162.084
20
-103.986
11
162.083
21
-103.983
0
LINE
8
BLACK
6
CONTINUOUS
10
162.083
20
-103.983
11
162.081
21
-103.98
0
LINE
8
BLACK
6
CONTINUOUS
10
162.081
20
-103.98
11
161.563
21
-102.76
0
LINE
8
BLACK
6
CONTINUOUS
10
161.563
20
-102.76
11
161.563
21
-102.759
0
LINE
8
BLACK
6
CONTINUOUS
10
161.563
20
-102.759
11
161.562
21
-102.756
0
LINE
8
BLACK
6
CONTINUOUS
10
161.562
20
-102.756
11
161.561
21
-102.753
0
LINE
8
BLACK
6
CONTINUOUS
10
161.561
20
-102.753
11
161.193
21
-101.479
0
LINE
8
BLACK
6
CONTINUOUS
10
161.193
20
-101.479
11
161.193
21
-101.479
0
LINE
8
BLACK
6
CONTINUOUS
10
161.193
20
-101.479
11
161.192
21
-101.475
0
LINE
8
BLACK
6
CONTINUOUS
10
161.192
20
-101.475
11
161.191
21
-101.472
0
LINE
8
BLACK
6
CONTINUOUS
10
161.191
20
-101.472
11
160.979
21
-100.163
0
LINE
8
BLACK
6
CONTINUOUS
10
160.979
20
-100.163
11
160.979
21
-100.163
0
LINE
8
BLACK
6
CONTINUOUS
10
160.979
20
-100.163
11
160.979
21
-100.159
0
LINE
8
BLACK
6
CONTINUOUS
10
160.979
20
-100.159
11
160.979
21
-100.156
0
LINE
8
BLACK
6
CONTINUOUS
10
160.979
20
-100.156
11
160.925
21
-98.8312
0
LINE
8
BLACK
6
CONTINUOUS
10
160.925
20
-98.8312
11
160.925
21
-98.8305
0
LINE
8
BLACK
6
CONTINUOUS
10
160.925
20
-98.8305
11
160.926
21
-98.8272
0
LINE
8
BLACK
6
CONTINUOUS
10
160.926
20
-98.8272
11
160.926
21
-98.8239
0
LINE
8
BLACK
6
CONTINUOUS
10
160.926
20
-98.8239
11
161.032
21
-97.5023
0
LINE
8
BLACK
6
CONTINUOUS
10
161.032
20
-97.5023
11
161.032
21
-97.5017
0
LINE
8
BLACK
6
CONTINUOUS
10
161.032
20
-97.5017
11
161.033
21
-97.4984
0
LINE
8
BLACK
6
CONTINUOUS
10
161.033
20
-97.4984
11
161.033
21
-97.4951
0
LINE
8
BLACK
6
CONTINUOUS
10
161.033
20
-97.4951
11
161.297
21
-96.1958
0
LINE
8
BLACK
6
CONTINUOUS
10
161.297
20
-96.1958
11
161.297
21
-96.1952
0
LINE
8
BLACK
6
CONTINUOUS
10
161.297
20
-96.1952
11
161.298
21
-96.192
0
LINE
8
BLACK
6
CONTINUOUS
10
161.298
20
-96.192
11
161.299
21
-96.1889
0
LINE
8
BLACK
6
CONTINUOUS
10
161.299
20
-96.1889
11
161.718
21
-94.9307
0
LINE
8
BLACK
6
CONTINUOUS
10
161.718
20
-94.9307
11
161.718
21
-94.9301
0
LINE
8
BLACK
6
CONTINUOUS
10
161.718
20
-94.9301
11
161.719
21
-94.9271
0
LINE
8
BLACK
6
CONTINUOUS
10
161.719
20
-94.9271
11
161.72
21
-94.924
0
LINE
8
BLACK
6
CONTINUOUS
10
161.72
20
-94.924
11
162.287
21
-93.7253
0
LINE
8
BLACK
6
CONTINUOUS
10
162.287
20
-93.7253
11
162.287
21
-93.7247
0
LINE
8
BLACK
6
CONTINUOUS
10
162.287
20
-93.7247
11
162.289
21
-93.7218
0
LINE
8
BLACK
6
CONTINUOUS
10
162.289
20
-93.7218
11
162.291
21
-93.7189
0
LINE
8
BLACK
6
CONTINUOUS
10
162.291
20
-93.7189
11
162.997
21
-92.597
0
LINE
8
BLACK
6
CONTINUOUS
10
162.997
20
-92.597
11
162.997
21
-92.5964
0
LINE
8
BLACK
6
CONTINUOUS
10
162.997
20
-92.5964
11
162.999
21
-92.5937
0
LINE
8
BLACK
6
CONTINUOUS
10
162.999
20
-92.5937
11
163.001
21
-92.5911
0
LINE
8
BLACK
6
CONTINUOUS
10
163.001
20
-92.5911
11
163.838
21
-91.5621
0
LINE
8
BLACK
6
CONTINUOUS
10
163.838
20
-91.5621
11
163.838
21
-91.5616
0
LINE
8
BLACK
6
CONTINUOUS
10
163.838
20
-91.5616
11
163.84
21
-91.5592
0
LINE
8
BLACK
6
CONTINUOUS
10
163.84
20
-91.5592
11
163.842
21
-91.5568
0
LINE
8
BLACK
6
CONTINUOUS
10
163.842
20
-91.5568
11
164.796
21
-90.6357
0
LINE
8
BLACK
6
CONTINUOUS
10
164.796
20
-90.6357
11
164.797
21
-90.6353
0
LINE
8
BLACK
6
CONTINUOUS
10
164.797
20
-90.6353
11
164.799
21
-90.6332
0
LINE
8
BLACK
6
CONTINUOUS
10
164.799
20
-90.6332
11
164.802
21
-90.6311
0
LINE
8
BLACK
6
CONTINUOUS
10
164.802
20
-90.6311
11
165.859
21
-89.8313
0
LINE
8
BLACK
6
CONTINUOUS
10
165.859
20
-89.8313
11
165.86
21
-89.8309
0
LINE
8
BLACK
6
CONTINUOUS
10
165.86
20
-89.8309
11
165.863
21
-89.8291
0
LINE
8
BLACK
6
CONTINUOUS
10
165.863
20
-89.8291
11
165.865
21
-89.8273
0
LINE
8
BLACK
6
CONTINUOUS
10
165.865
20
-89.8273
11
167.011
21
-89.1603
0
LINE
8
BLACK
6
CONTINUOUS
10
167.011
20
-89.1603
11
167.012
21
-89.16
0
LINE
8
BLACK
6
CONTINUOUS
10
167.012
20
-89.16
11
167.015
21
-89.1585
0
LINE
8
BLACK
6
CONTINUOUS
10
167.015
20
-89.1585
11
167.018
21
-89.1571
0
LINE
8
BLACK
6
CONTINUOUS
10
167.018
20
-89.1571
11
168.236
21
-88.6326
0
LINE
8
BLACK
6
CONTINUOUS
10
168.236
20
-88.6326
11
168.236
21
-88.6324
0
LINE
8
BLACK
6
CONTINUOUS
10
168.236
20
-88.6324
11
168.239
21
-88.6313
0
LINE
8
BLACK
6
CONTINUOUS
10
168.239
20
-88.6313
11
168.242
21
-88.6302
0
LINE
8
BLACK
6
CONTINUOUS
10
168.242
20
-88.6302
11
169.514
21
-88.2558
0
LINE
8
BLACK
6
CONTINUOUS
10
169.514
20
-88.2558
11
169.515
21
-88.2556
0
LINE
8
BLACK
6
CONTINUOUS
10
169.515
20
-88.2556
11
169.518
21
-88.2549
0
LINE
8
BLACK
6
CONTINUOUS
10
169.518
20
-88.2549
11
169.521
21
-88.2542
0
LINE
8
BLACK
6
CONTINUOUS
10
169.521
20
-88.2542
11
170.829
21
-88.0354
0
LINE
8
BLACK
6
CONTINUOUS
10
170.829
20
-88.0354
11
170.83
21
-88.0353
0
LINE
8
BLACK
6
CONTINUOUS
10
170.83
20
-88.0353
11
170.833
21
-88.0349
0
LINE
8
BLACK
6
CONTINUOUS
10
170.833
20
-88.0349
11
170.836
21
-88.0346
0
LINE
8
BLACK
6
CONTINUOUS
10
170.836
20
-88.0346
11
172.161
21
-87.9745
0
LINE
8
BLACK
6
CONTINUOUS
10
172.161
20
-87.9745
11
172.161
21
-87.9744
0
LINE
8
BLACK
6
CONTINUOUS
10
172.161
20
-87.9744
11
172.165
21
-87.9745
0
LINE
8
BLACK
6
CONTINUOUS
10
170.845
20
-88.1543
11
169.545
21
-88.3719
0
LINE
8
BLACK
6
CONTINUOUS
10
169.545
20
-88.3719
11
168.28
21
-88.7443
0
LINE
8
BLACK
6
CONTINUOUS
10
168.28
20
-88.7443
11
167.069
21
-89.2658
0
LINE
8
BLACK
6
CONTINUOUS
10
167.069
20
-89.2658
11
165.929
21
-89.9292
0
LINE
8
BLACK
6
CONTINUOUS
10
165.929
20
-89.9292
11
164.877
21
-90.7246
0
LINE
8
BLACK
6
CONTINUOUS
10
164.877
20
-90.7246
11
163.928
21
-91.6406
0
LINE
8
BLACK
6
CONTINUOUS
10
163.928
20
-91.6406
11
163.097
21
-92.664
0
LINE
8
BLACK
6
CONTINUOUS
10
163.097
20
-92.664
11
162.394
21
-93.7798
0
LINE
8
BLACK
6
CONTINUOUS
10
162.394
20
-93.7798
11
161.83
21
-94.972
0
LINE
8
BLACK
6
CONTINUOUS
10
161.83
20
-94.972
11
161.414
21
-96.2233
0
LINE
8
BLACK
6
CONTINUOUS
10
161.414
20
-96.2233
11
161.151
21
-97.5155
0
LINE
8
BLACK
6
CONTINUOUS
10
161.151
20
-97.5155
11
161.046
21
-98.83
0
LINE
8
BLACK
6
CONTINUOUS
10
161.046
20
-98.83
11
161.098
21
-100.148
0
LINE
8
BLACK
6
CONTINUOUS
10
161.098
20
-100.148
11
161.309
21
-101.449
0
LINE
8
BLACK
6
CONTINUOUS
10
161.309
20
-101.449
11
161.675
21
-102.716
0
LINE
8
BLACK
6
CONTINUOUS
10
161.675
20
-102.716
11
162.19
21
-103.93
0
LINE
8
BLACK
6
CONTINUOUS
10
162.19
20
-103.93
11
162.847
21
-105.073
0
LINE
8
BLACK
6
CONTINUOUS
10
162.847
20
-105.073
11
163.637
21
-106.129
0
LINE
8
BLACK
6
CONTINUOUS
10
163.637
20
-106.129
11
164.548
21
-107.083
0
LINE
8
BLACK
6
CONTINUOUS
10
164.548
20
-107.083
11
165.567
21
-107.92
0
LINE
8
BLACK
6
CONTINUOUS
10
165.567
20
-107.92
11
166.68
21
-108.628
0
LINE
8
BLACK
6
CONTINUOUS
10
166.68
20
-108.628
11
167.869
21
-109.198
0
LINE
8
BLACK
6
CONTINUOUS
10
167.869
20
-109.198
11
169.118
21
-109.621
0
LINE
8
BLACK
6
CONTINUOUS
10
169.118
20
-109.621
11
170.412
21
-109.891
0
LINE
8
BLACK
6
CONTINUOUS
10
170.412
20
-109.891
11
170.413
21
-109.891
0
LINE
8
BLACK
6
CONTINUOUS
10
170.413
20
-109.891
11
170.42
21
-109.893
0
LINE
8
BLACK
6
CONTINUOUS
10
170.42
20
-109.893
11
170.426
21
-109.896
0
LINE
8
BLACK
6
CONTINUOUS
10
170.426
20
-109.896
11
170.433
21
-109.9
0
LINE
8
BLACK
6
CONTINUOUS
10
170.433
20
-109.9
11
170.439
21
-109.904
0
LINE
8
BLACK
6
CONTINUOUS
10
170.439
20
-109.904
11
170.444
21
-109.909
0
LINE
8
BLACK
6
CONTINUOUS
10
170.444
20
-109.909
11
170.448
21
-109.915
0
LINE
8
BLACK
6
CONTINUOUS
10
170.448
20
-109.915
11
170.452
21
-109.921
0
LINE
8
BLACK
6
CONTINUOUS
10
170.452
20
-109.921
11
170.455
21
-109.927
0
LINE
8
BLACK
6
CONTINUOUS
10
170.455
20
-109.927
11
170.458
21
-109.934
0
LINE
8
BLACK
6
CONTINUOUS
10
170.458
20
-109.934
11
170.459
21
-109.941
0
LINE
8
BLACK
6
CONTINUOUS
10
170.459
20
-109.941
11
170.46
21
-109.948
0
LINE
8
BLACK
6
CONTINUOUS
10
170.46
20
-109.948
11
170.46
21
-109.955
0
LINE
8
BLACK
6
CONTINUOUS
10
170.46
20
-109.955
11
170.459
21
-109.963
0
LINE
8
BLACK
6
CONTINUOUS
10
170.459
20
-109.963
11
170.457
21
-109.97
0
LINE
8
BLACK
6
CONTINUOUS
10
170.457
20
-109.97
11
170.454
21
-109.976
0
LINE
8
BLACK
6
CONTINUOUS
10
170.454
20
-109.976
11
170.45
21
-109.983
0
LINE
8
BLACK
6
CONTINUOUS
10
170.45
20
-109.983
11
170.446
21
-109.988
0
LINE
8
BLACK
6
CONTINUOUS
10
170.446
20
-109.988
11
170.441
21
-109.994
0
LINE
8
BLACK
6
CONTINUOUS
10
170.441
20
-109.994
11
170.436
21
-109.998
0
LINE
8
BLACK
6
CONTINUOUS
10
170.436
20
-109.998
11
170.43
21
-110.002
0
LINE
8
BLACK
6
CONTINUOUS
10
170.43
20
-110.002
11
170.423
21
-110.005
0
LINE
8
BLACK
6
CONTINUOUS
10
170.423
20
-110.005
11
170.416
21
-110.008
0
LINE
8
BLACK
6
CONTINUOUS
10
170.416
20
-110.008
11
170.409
21
-110.009
0
LINE
8
BLACK
6
CONTINUOUS
10
170.409
20
-110.009
11
170.402
21
-110.01
0
LINE
8
BLACK
6
CONTINUOUS
10
170.402
20
-110.01
11
170.395
21
-110.01
0
LINE
8
BLACK
6
CONTINUOUS
10
170.395
20
-110.01
11
170.388
21
-110.009
0
LINE
8
BLACK
6
CONTINUOUS
10
170.388
20
-110.009
11
169.09
21
-109.738
0
LINE
8
BLACK
6
CONTINUOUS
10
169.09
20
-109.738
11
169.089
21
-109.737
0
LINE
8
BLACK
6
CONTINUOUS
10
169.089
20
-109.737
11
169.086
21
-109.737
0
LINE
8
BLACK
6
CONTINUOUS
10
169.086
20
-109.737
11
169.083
21
-109.736
0
LINE
8
BLACK
6
CONTINUOUS
10
169.083
20
-109.736
11
168.06
21
-109.389
0
LINE
8
BLACK
6
CONTINUOUS
10
168.06
20
-109.389
11
168.06
21
-112.69
0
LINE
8
BLACK
6
CONTINUOUS
10
168.06
20
-112.69
11
175.94
21
-112.69
0
LINE
8
BLACK
6
CONTINUOUS
10
175.94
20
-112.69
11
175.94
21
-109.398
0
LINE
8
BLACK
6
CONTINUOUS
10
175.94
20
-109.398
11
175.873
21
-109.427
0
LINE
8
BLACK
6
CONTINUOUS
10
175.873
20
-109.427
11
175.873
21
-109.428
0
LINE
8
BLACK
6
CONTINUOUS
10
175.873
20
-109.428
11
175.87
21
-109.429
0
LINE
8
BLACK
6
CONTINUOUS
10
175.87
20
-109.429
11
175.867
21
-109.43
0
LINE
8
BLACK
6
CONTINUOUS
10
175.867
20
-109.43
11
174.599
21
-109.818
0
LINE
8
BLACK
6
CONTINUOUS
10
174.599
20
-109.818
11
174.598
21
-109.818
0
LINE
8
BLACK
6
CONTINUOUS
10
174.598
20
-109.818
11
174.595
21
-109.818
0
LINE
8
BLACK
6
CONTINUOUS
10
174.595
20
-109.818
11
174.592
21
-109.819
0
LINE
8
BLACK
6
CONTINUOUS
10
174.592
20
-109.819
11
173.611
21
-110.009
0
LINE
8
BLACK
6
CONTINUOUS
10
173.611
20
-110.009
11
173.611
21
-110.009
0
LINE
8
BLACK
6
CONTINUOUS
10
173.611
20
-110.009
11
173.604
21
-110.01
0
LINE
8
BLACK
6
CONTINUOUS
10
173.604
20
-110.01
11
173.596
21
-110.01
0
LINE
8
BLACK
6
CONTINUOUS
10
173.596
20
-110.01
11
173.589
21
-110.009
0
LINE
8
BLACK
6
CONTINUOUS
10
173.589
20
-110.009
11
173.582
21
-110.007
0
LINE
8
BLACK
6
CONTINUOUS
10
173.582
20
-110.007
11
173.575
21
-110.005
0
LINE
8
BLACK
6
CONTINUOUS
10
173.575
20
-110.005
11
173.569
21
-110.001
0
LINE
8
BLACK
6
CONTINUOUS
10
173.569
20
-110.001
11
173.563
21
-109.997
0
LINE
8
BLACK
6
CONTINUOUS
10
173.563
20
-109.997
11
173.558
21
-109.993
0
LINE
8
BLACK
6
CONTINUOUS
10
173.558
20
-109.993
11
173.553
21
-109.987
0
LINE
8
BLACK
6
CONTINUOUS
10
173.553
20
-109.987
11
173.549
21
-109.981
0
LINE
8
BLACK
6
CONTINUOUS
10
173.549
20
-109.981
11
173.545
21
-109.975
0
LINE
8
BLACK
6
CONTINUOUS
10
173.545
20
-109.975
11
173.543
21
-109.968
0
LINE
8
BLACK
6
CONTINUOUS
10
173.543
20
-109.968
11
173.541
21
-109.961
0
LINE
8
BLACK
6
CONTINUOUS
10
173.541
20
-109.961
11
173.54
21
-109.954
0
LINE
8
BLACK
6
CONTINUOUS
10
173.54
20
-109.954
11
173.54
21
-109.947
0
LINE
8
BLACK
6
CONTINUOUS
10
173.54
20
-109.947
11
173.541
21
-109.94
0
LINE
8
BLACK
6
CONTINUOUS
10
173.541
20
-109.94
11
173.543
21
-109.933
0
LINE
8
BLACK
6
CONTINUOUS
10
173.543
20
-109.933
11
173.545
21
-109.926
0
LINE
8
BLACK
6
CONTINUOUS
10
173.545
20
-109.926
11
173.548
21
-109.919
0
LINE
8
BLACK
6
CONTINUOUS
10
173.548
20
-109.919
11
173.552
21
-109.913
0
LINE
8
BLACK
6
CONTINUOUS
10
173.552
20
-109.913
11
173.557
21
-109.908
0
LINE
8
BLACK
6
CONTINUOUS
10
173.557
20
-109.908
11
173.563
21
-109.903
0
LINE
8
BLACK
6
CONTINUOUS
10
173.563
20
-109.903
11
173.569
21
-109.899
0
LINE
8
BLACK
6
CONTINUOUS
10
173.569
20
-109.899
11
173.575
21
-109.896
0
LINE
8
BLACK
6
CONTINUOUS
10
173.575
20
-109.896
11
173.582
21
-109.893
0
LINE
8
BLACK
6
CONTINUOUS
10
173.582
20
-109.893
11
173.589
21
-109.891
0
LINE
8
BLACK
6
CONTINUOUS
10
173.589
20
-109.891
11
174.567
21
-109.702
0
LINE
8
BLACK
6
CONTINUOUS
10
174.567
20
-109.702
11
175.828
21
-109.316
0
LINE
8
BLACK
6
CONTINUOUS
10
175.828
20
-109.316
11
177.034
21
-108.782
0
LINE
8
BLACK
6
CONTINUOUS
10
177.034
20
-108.782
11
178.166
21
-108.107
0
LINE
8
BLACK
6
CONTINUOUS
10
178.166
20
-108.107
11
179.21
21
-107.3
0
LINE
8
BLACK
6
CONTINUOUS
10
179.21
20
-107.3
11
180.149
21
-106.374
0
LINE
8
BLACK
6
CONTINUOUS
10
180.149
20
-106.374
11
180.97
21
-105.342
0
LINE
8
BLACK
6
CONTINUOUS
10
180.97
20
-105.342
11
181.661
21
-104.219
0
LINE
8
BLACK
6
CONTINUOUS
10
181.661
20
-104.219
11
182.212
21
-103.021
0
LINE
8
BLACK
6
CONTINUOUS
10
182.212
20
-103.021
11
182.615
21
-101.766
0
LINE
8
BLACK
6
CONTINUOUS
10
182.615
20
-101.766
11
182.864
21
-100.471
0
LINE
8
BLACK
6
CONTINUOUS
10
182.864
20
-100.471
11
182.956
21
-99.1553
0
LINE
8
BLACK
6
CONTINUOUS
10
182.956
20
-99.1553
11
182.889
21
-97.8383
0
LINE
8
BLACK
6
CONTINUOUS
10
182.889
20
-97.8383
11
182.665
21
-96.5389
0
LINE
8
BLACK
6
CONTINUOUS
10
182.665
20
-96.5389
11
182.286
21
-95.2758
0
LINE
8
BLACK
6
CONTINUOUS
10
182.286
20
-95.2758
11
181.758
21
-94.0674
0
LINE
8
BLACK
6
CONTINUOUS
10
181.758
20
-94.0674
11
181.089
21
-92.9311
0
LINE
8
BLACK
6
CONTINUOUS
10
181.089
20
-92.9311
11
180.288
21
-91.8835
0
LINE
8
BLACK
6
CONTINUOUS
10
180.288
20
-91.8835
11
179.367
21
-90.9398
0
LINE
8
BLACK
6
CONTINUOUS
10
179.367
20
-90.9398
11
178.339
21
-90.1134
0
LINE
8
BLACK
6
CONTINUOUS
10
178.339
20
-90.1134
11
177.22
21
-89.4166
0
LINE
8
BLACK
6
CONTINUOUS
10
177.22
20
-89.4166
11
176.025
21
-88.8593
0
LINE
8
BLACK
6
CONTINUOUS
10
176.025
20
-88.8593
11
174.771
21
-88.4496
0
LINE
8
BLACK
6
CONTINUOUS
10
174.771
20
-88.4496
11
173.478
21
-88.1934
0
LINE
8
BLACK
6
CONTINUOUS
10
173.478
20
-88.1934
11
172.163
21
-88.0945
0
LINE
8
BLACK
6
CONTINUOUS
10
172.163
20
-88.0945
11
170.845
21
-88.1543
0
LINE
8
BLACK
6
CONTINUOUS
10
172.412
20
-112.291
11
172.423
21
-112.294
0
LINE
8
BLACK
6
CONTINUOUS
10
172.423
20
-112.294
11
172.433
21
-112.3
0
LINE
8
BLACK
6
CONTINUOUS
10
172.433
20
-112.3
11
172.443
21
-112.307
0
LINE
8
BLACK
6
CONTINUOUS
10
172.443
20
-112.307
11
172.45
21
-112.317
0
LINE
8
BLACK
6
CONTINUOUS
10
172.45
20
-112.317
11
172.456
21
-112.327
0
LINE
8
BLACK
6
CONTINUOUS
10
172.456
20
-112.327
11
172.459
21
-112.338
0
LINE
8
BLACK
6
CONTINUOUS
10
172.459
20
-112.338
11
172.46
21
-112.35
0
LINE
8
BLACK
6
CONTINUOUS
10
172.46
20
-112.35
11
172.459
21
-112.362
0
LINE
8
BLACK
6
CONTINUOUS
10
172.459
20
-112.362
11
172.456
21
-112.373
0
LINE
8
BLACK
6
CONTINUOUS
10
172.456
20
-112.373
11
172.45
21
-112.383
0
LINE
8
BLACK
6
CONTINUOUS
10
172.45
20
-112.383
11
172.443
21
-112.393
0
LINE
8
BLACK
6
CONTINUOUS
10
172.443
20
-112.393
11
172.433
21
-112.4
0
LINE
8
BLACK
6
CONTINUOUS
10
172.433
20
-112.4
11
172.423
21
-112.406
0
LINE
8
BLACK
6
CONTINUOUS
10
172.423
20
-112.406
11
172.412
21
-112.409
0
LINE
8
BLACK
6
CONTINUOUS
10
172.412
20
-112.409
11
172.403
21
-112.41
0
LINE
8
BLACK
6
CONTINUOUS
10
172.403
20
-112.41
11
171.597
21
-112.41
0
LINE
8
BLACK
6
CONTINUOUS
10
171.597
20
-112.41
11
171.588
21
-112.409
0
LINE
8
BLACK
6
CONTINUOUS
10
171.588
20
-112.409
11
171.577
21
-112.406
0
LINE
8
BLACK
6
CONTINUOUS
10
171.577
20
-112.406
11
171.567
21
-112.4
0
LINE
8
BLACK
6
CONTINUOUS
10
171.567
20
-112.4
11
171.557
21
-112.393
0
LINE
8
BLACK
6
CONTINUOUS
10
171.557
20
-112.393
11
171.55
21
-112.383
0
LINE
8
BLACK
6
CONTINUOUS
10
171.55
20
-112.383
11
171.544
21
-112.373
0
LINE
8
BLACK
6
CONTINUOUS
10
171.544
20
-112.373
11
171.541
21
-112.362
0
LINE
8
BLACK
6
CONTINUOUS
10
171.541
20
-112.362
11
171.54
21
-112.35
0
LINE
8
BLACK
6
CONTINUOUS
10
171.54
20
-112.35
11
171.541
21
-112.338
0
LINE
8
BLACK
6
CONTINUOUS
10
171.541
20
-112.338
11
171.544
21
-112.327
0
LINE
8
BLACK
6
CONTINUOUS
10
171.544
20
-112.327
11
171.55
21
-112.317
0
LINE
8
BLACK
6
CONTINUOUS
10
171.55
20
-112.317
11
171.557
21
-112.307
0
LINE
8
BLACK
6
CONTINUOUS
10
171.557
20
-112.307
11
171.567
21
-112.3
0
LINE
8
BLACK
6
CONTINUOUS
10
171.567
20
-112.3
11
171.577
21
-112.294
0
LINE
8
BLACK
6
CONTINUOUS
10
171.577
20
-112.294
11
171.588
21
-112.291
0
LINE
8
BLACK
6
CONTINUOUS
10
171.588
20
-112.291
11
171.597
21
-112.29
0
LINE
8
BLACK
6
CONTINUOUS
10
171.597
20
-112.29
11
172.403
21
-112.29
0
LINE
8
BLACK
6
CONTINUOUS
10
172.403
20
-112.29
11
172.412
21
-112.291
0
LINE
8
BLACK
6
CONTINUOUS
10
179.268
20
-84.9292
11
181.268
21
-85.4054
0
LINE
8
BLACK
6
CONTINUOUS
10
181.268
20
-85.4054
11
181.269
21
-85.4057
0
LINE
8
BLACK
6
CONTINUOUS
10
181.269
20
-85.4057
11
181.274
21
-85.4073
0
LINE
8
BLACK
6
CONTINUOUS
10
181.274
20
-85.4073
11
181.278
21
-85.4084
0
LINE
8
BLACK
6
CONTINUOUS
10
181.278
20
-85.4084
11
181.283
21
-85.4106
0
LINE
8
BLACK
6
CONTINUOUS
10
181.283
20
-85.4106
11
181.288
21
-85.4123
0
LINE
8
BLACK
6
CONTINUOUS
10
181.288
20
-85.4123
11
181.292
21
-85.4147
0
LINE
8
BLACK
6
CONTINUOUS
10
181.292
20
-85.4147
11
181.296
21
-85.4167
0
LINE
8
BLACK
6
CONTINUOUS
10
181.296
20
-85.4167
11
181.3
21
-85.4197
0
LINE
8
BLACK
6
CONTINUOUS
10
181.3
20
-85.4197
11
181.304
21
-85.4224
0
LINE
8
BLACK
6
CONTINUOUS
10
181.304
20
-85.4224
11
181.308
21
-85.4255
0
LINE
8
BLACK
6
CONTINUOUS
10
181.308
20
-85.4255
11
181.312
21
-85.4282
0
LINE
8
BLACK
6
CONTINUOUS
10
181.312
20
-85.4282
11
181.315
21
-85.432
0
LINE
8
BLACK
6
CONTINUOUS
10
181.315
20
-85.432
11
181.319
21
-85.4355
0
LINE
8
BLACK
6
CONTINUOUS
10
181.319
20
-85.4355
11
181.322
21
-85.4392
0
LINE
8
BLACK
6
CONTINUOUS
10
181.322
20
-85.4392
11
181.325
21
-85.4426
0
LINE
8
BLACK
6
CONTINUOUS
10
181.325
20
-85.4426
11
181.327
21
-85.447
0
LINE
8
BLACK
6
CONTINUOUS
10
181.327
20
-85.447
11
181.33
21
-85.4512
0
LINE
8
BLACK
6
CONTINUOUS
10
181.33
20
-85.4512
11
181.332
21
-85.4553
0
LINE
8
BLACK
6
CONTINUOUS
10
181.332
20
-85.4553
11
181.335
21
-85.4593
0
LINE
8
BLACK
6
CONTINUOUS
10
181.335
20
-85.4593
11
181.337
21
-85.4641
0
LINE
8
BLACK
6
CONTINUOUS
10
181.337
20
-85.4641
11
181.339
21
-85.4688
0
LINE
8
BLACK
6
CONTINUOUS
10
181.339
20
-85.4688
11
181.34
21
-85.4732
0
LINE
8
BLACK
6
CONTINUOUS
10
181.34
20
-85.4732
11
181.342
21
-85.4776
0
LINE
8
BLACK
6
CONTINUOUS
10
181.342
20
-85.4776
11
181.342
21
-85.4827
0
LINE
8
BLACK
6
CONTINUOUS
10
181.342
20
-85.4827
11
181.344
21
-85.4877
0
LINE
8
BLACK
6
CONTINUOUS
10
181.344
20
-85.4877
11
181.344
21
-85.4923
0
LINE
8
BLACK
6
CONTINUOUS
10
181.344
20
-85.4923
11
181.345
21
-85.4969
0
LINE
8
BLACK
6
CONTINUOUS
10
181.345
20
-85.4969
11
181.344
21
-85.502
0
LINE
8
BLACK
6
CONTINUOUS
10
181.344
20
-85.502
11
181.345
21
-85.5072
0
LINE
8
BLACK
6
CONTINUOUS
10
181.345
20
-85.5072
11
181.344
21
-85.5117
0
LINE
8
BLACK
6
CONTINUOUS
10
181.344
20
-85.5117
11
181.344
21
-85.5164
0
LINE
8
BLACK
6
CONTINUOUS
10
181.344
20
-85.5164
11
181.343
21
-85.5214
0
LINE
8
BLACK
6
CONTINUOUS
10
181.343
20
-85.5214
11
181.342
21
-85.5265
0
LINE
8
BLACK
6
CONTINUOUS
10
181.342
20
-85.5265
11
181.34
21
-85.5309
0
LINE
8
BLACK
6
CONTINUOUS
10
181.34
20
-85.5309
11
181.339
21
-85.5353
0
LINE
8
BLACK
6
CONTINUOUS
10
181.339
20
-85.5353
11
181.337
21
-85.54
0
LINE
8
BLACK
6
CONTINUOUS
10
181.337
20
-85.54
11
181.335
21
-85.5449
0
LINE
8
BLACK
6
CONTINUOUS
10
181.335
20
-85.5449
11
181.333
21
-85.5489
0
LINE
8
BLACK
6
CONTINUOUS
10
181.333
20
-85.5489
11
181.331
21
-85.5531
0
LINE
8
BLACK
6
CONTINUOUS
10
181.331
20
-85.5531
11
181.328
21
-85.5573
0
LINE
8
BLACK
6
CONTINUOUS
10
181.328
20
-85.5573
11
181.325
21
-85.5617
0
LINE
8
BLACK
6
CONTINUOUS
10
181.325
20
-85.5617
11
181.322
21
-85.5652
0
LINE
8
BLACK
6
CONTINUOUS
10
181.322
20
-85.5652
11
181.32
21
-85.5689
0
LINE
8
BLACK
6
CONTINUOUS
10
181.32
20
-85.5689
11
181.316
21
-85.5724
0
LINE
8
BLACK
6
CONTINUOUS
10
181.316
20
-85.5724
11
181.312
21
-85.5763
0
LINE
8
BLACK
6
CONTINUOUS
10
181.312
20
-85.5763
11
181.309
21
-85.579
0
LINE
8
BLACK
6
CONTINUOUS
10
181.309
20
-85.579
11
181.305
21
-85.5822
0
LINE
8
BLACK
6
CONTINUOUS
10
181.305
20
-85.5822
11
181.301
21
-85.5849
0
LINE
8
BLACK
6
CONTINUOUS
10
181.301
20
-85.5849
11
181.297
21
-85.588
0
LINE
8
BLACK
6
CONTINUOUS
10
181.297
20
-85.588
11
181.293
21
-85.59
0
LINE
8
BLACK
6
CONTINUOUS
10
181.293
20
-85.59
11
181.289
21
-85.5924
0
LINE
8
BLACK
6
CONTINUOUS
10
181.289
20
-85.5924
11
181.284
21
-85.5943
0
LINE
8
BLACK
6
CONTINUOUS
10
181.284
20
-85.5943
11
181.279
21
-85.5965
0
LINE
8
BLACK
6
CONTINUOUS
10
181.279
20
-85.5965
11
181.275
21
-85.5977
0
LINE
8
BLACK
6
CONTINUOUS
10
181.275
20
-85.5977
11
181.271
21
-85.5993
0
LINE
8
BLACK
6
CONTINUOUS
10
181.271
20
-85.5993
11
180.204
21
-85.8836
0
LINE
8
BLACK
6
CONTINUOUS
10
180.204
20
-85.8836
11
181.271
21
-86.1679
0
LINE
8
BLACK
6
CONTINUOUS
10
181.271
20
-86.1679
11
181.272
21
-86.1683
0
LINE
8
BLACK
6
CONTINUOUS
10
181.272
20
-86.1683
11
181.276
21
-86.17
0
LINE
8
BLACK
6
CONTINUOUS
10
181.276
20
-86.17
11
181.281
21
-86.1712
0
LINE
8
BLACK
6
CONTINUOUS
10
181.281
20
-86.1712
11
181.285
21
-86.1735
0
LINE
8
BLACK
6
CONTINUOUS
10
181.285
20
-86.1735
11
181.29
21
-86.1754
0
LINE
8
BLACK
6
CONTINUOUS
10
181.29
20
-86.1754
11
181.294
21
-86.1779
0
LINE
8
BLACK
6
CONTINUOUS
10
181.294
20
-86.1779
11
181.298
21
-86.18
0
LINE
8
BLACK
6
CONTINUOUS
10
181.298
20
-86.18
11
181.302
21
-86.1831
0
LINE
8
BLACK
6
CONTINUOUS
10
181.302
20
-86.1831
11
181.307
21
-86.1859
0
LINE
8
BLACK
6
CONTINUOUS
10
181.307
20
-86.1859
11
181.31
21
-86.1891
0
LINE
8
BLACK
6
CONTINUOUS
10
181.31
20
-86.1891
11
181.313
21
-86.1919
0
LINE
8
BLACK
6
CONTINUOUS
10
181.313
20
-86.1919
11
181.317
21
-86.1958
0
LINE
8
BLACK
6
CONTINUOUS
10
181.317
20
-86.1958
11
181.321
21
-86.1994
0
LINE
8
BLACK
6
CONTINUOUS
10
181.321
20
-86.1994
11
181.323
21
-86.2032
0
LINE
8
BLACK
6
CONTINUOUS
10
181.323
20
-86.2032
11
181.326
21
-86.2067
0
LINE
8
BLACK
6
CONTINUOUS
10
181.326
20
-86.2067
11
181.329
21
-86.2111
0
LINE
8
BLACK
6
CONTINUOUS
10
181.329
20
-86.2111
11
181.332
21
-86.2154
0
LINE
8
BLACK
6
CONTINUOUS
10
181.332
20
-86.2154
11
181.334
21
-86.2196
0
LINE
8
BLACK
6
CONTINUOUS
10
181.334
20
-86.2196
11
181.336
21
-86.2236
0
LINE
8
BLACK
6
CONTINUOUS
10
181.336
20
-86.2236
11
181.338
21
-86.2285
0
LINE
8
BLACK
6
CONTINUOUS
10
181.338
20
-86.2285
11
181.34
21
-86.2332
0
LINE
8
BLACK
6
CONTINUOUS
10
181.34
20
-86.2332
11
181.341
21
-86.2377
0
LINE
8
BLACK
6
CONTINUOUS
10
181.341
20
-86.2377
11
181.342
21
-86.2421
0
LINE
8
BLACK
6
CONTINUOUS
10
181.342
20
-86.2421
11
181.343
21
-86.2472
0
LINE
8
BLACK
6
CONTINUOUS
10
181.343
20
-86.2472
11
181.344
21
-86.2523
0
LINE
8
BLACK
6
CONTINUOUS
10
181.344
20
-86.2523
11
181.344
21
-86.2569
0
LINE
8
BLACK
6
CONTINUOUS
10
181.344
20
-86.2569
11
181.345
21
-86.2614
0
LINE
8
BLACK
6
CONTINUOUS
10
181.345
20
-86.2614
11
181.344
21
-86.2666
0
LINE
8
BLACK
6
CONTINUOUS
10
181.344
20
-86.2666
11
181.345
21
-86.2718
0
LINE
8
BLACK
6
CONTINUOUS
10
181.345
20
-86.2718
11
181.344
21
-86.2763
0
LINE
8
BLACK
6
CONTINUOUS
10
181.344
20
-86.2763
11
181.343
21
-86.2809
0
LINE
8
BLACK
6
CONTINUOUS
10
181.343
20
-86.2809
11
181.342
21
-86.2859
0
LINE
8
BLACK
6
CONTINUOUS
10
181.342
20
-86.2859
11
181.341
21
-86.291
0
LINE
8
BLACK
6
CONTINUOUS
10
181.341
20
-86.291
11
181.34
21
-86.2953
0
LINE
8
BLACK
6
CONTINUOUS
10
181.34
20
-86.2953
11
181.338
21
-86.2998
0
LINE
8
BLACK
6
CONTINUOUS
10
181.338
20
-86.2998
11
181.336
21
-86.3044
0
LINE
8
BLACK
6
CONTINUOUS
10
181.336
20
-86.3044
11
181.334
21
-86.3092
0
LINE
8
BLACK
6
CONTINUOUS
10
181.334
20
-86.3092
11
181.332
21
-86.3131
0
LINE
8
BLACK
6
CONTINUOUS
10
181.332
20
-86.3131
11
181.33
21
-86.3173
0
LINE
8
BLACK
6
CONTINUOUS
10
181.33
20
-86.3173
11
181.327
21
-86.3214
0
LINE
8
BLACK
6
CONTINUOUS
10
181.327
20
-86.3214
11
181.324
21
-86.3258
0
LINE
8
BLACK
6
CONTINUOUS
10
181.324
20
-86.3258
11
181.321
21
-86.3291
0
LINE
8
BLACK
6
CONTINUOUS
10
181.321
20
-86.3291
11
181.318
21
-86.3328
0
LINE
8
BLACK
6
CONTINUOUS
10
181.318
20
-86.3328
11
181.314
21
-86.3362
0
LINE
8
BLACK
6
CONTINUOUS
10
181.314
20
-86.3362
11
181.31
21
-86.34
0
LINE
8
BLACK
6
CONTINUOUS
10
181.31
20
-86.34
11
181.307
21
-86.3426
0
LINE
8
BLACK
6
CONTINUOUS
10
181.307
20
-86.3426
11
181.303
21
-86.3457
0
LINE
8
BLACK
6
CONTINUOUS
10
181.303
20
-86.3457
11
181.299
21
-86.3483
0
LINE
8
BLACK
6
CONTINUOUS
10
181.299
20
-86.3483
11
181.295
21
-86.3513
0
LINE
8
BLACK
6
CONTINUOUS
10
181.295
20
-86.3513
11
181.29
21
-86.3532
0
LINE
8
BLACK
6
CONTINUOUS
10
181.29
20
-86.3532
11
181.286
21
-86.3555
0
LINE
8
BLACK
6
CONTINUOUS
10
181.286
20
-86.3555
11
181.281
21
-86.3572
0
LINE
8
BLACK
6
CONTINUOUS
10
181.281
20
-86.3572
11
181.277
21
-86.3593
0
LINE
8
BLACK
6
CONTINUOUS
10
181.277
20
-86.3593
11
181.272
21
-86.3603
0
LINE
8
BLACK
6
CONTINUOUS
10
181.272
20
-86.3603
11
181.268
21
-86.3619
0
LINE
8
BLACK
6
CONTINUOUS
10
181.268
20
-86.3619
11
179.268
21
-86.838
0
LINE
8
BLACK
6
CONTINUOUS
10
179.268
20
-86.838
11
179.267
21
-86.8384
0
LINE
8
BLACK
6
CONTINUOUS
10
179.267
20
-86.8384
11
179.247
21
-86.8407
0
LINE
8
BLACK
6
CONTINUOUS
10
179.247
20
-86.8407
11
179.228
21
-86.8393
0
LINE
8
BLACK
6
CONTINUOUS
10
179.228
20
-86.8393
11
179.209
21
-86.8341
0
LINE
8
BLACK
6
CONTINUOUS
10
179.209
20
-86.8341
11
179.191
21
-86.8254
0
LINE
8
BLACK
6
CONTINUOUS
10
179.191
20
-86.8254
11
179.176
21
-86.8134
0
LINE
8
BLACK
6
CONTINUOUS
10
179.176
20
-86.8134
11
179.163
21
-86.7987
0
LINE
8
BLACK
6
CONTINUOUS
10
179.163
20
-86.7987
11
179.154
21
-86.7817
0
LINE
8
BLACK
6
CONTINUOUS
10
179.154
20
-86.7817
11
179.147
21
-86.7632
0
LINE
8
BLACK
6
CONTINUOUS
10
179.147
20
-86.7632
11
179.145
21
-86.7439
0
LINE
8
BLACK
6
CONTINUOUS
10
179.145
20
-86.7439
11
179.146
21
-86.7244
0
LINE
8
BLACK
6
CONTINUOUS
10
179.146
20
-86.7244
11
179.151
21
-86.7056
0
LINE
8
BLACK
6
CONTINUOUS
10
179.151
20
-86.7056
11
179.16
21
-86.6881
0
LINE
8
BLACK
6
CONTINUOUS
10
179.16
20
-86.6881
11
179.172
21
-86.6726
0
LINE
8
BLACK
6
CONTINUOUS
10
179.172
20
-86.6726
11
179.186
21
-86.6596
0
LINE
8
BLACK
6
CONTINUOUS
10
179.186
20
-86.6596
11
179.203
21
-86.6498
0
LINE
8
BLACK
6
CONTINUOUS
10
179.203
20
-86.6498
11
179.222
21
-86.6435
0
LINE
8
BLACK
6
CONTINUOUS
10
179.222
20
-86.6435
11
180.836
21
-86.2591
0
LINE
8
BLACK
6
CONTINUOUS
10
180.836
20
-86.2591
11
179.79
21
-85.9802
0
LINE
8
BLACK
6
CONTINUOUS
10
179.79
20
-85.9802
11
179.789
21
-85.9799
0
LINE
8
BLACK
6
CONTINUOUS
10
179.789
20
-85.9799
11
179.786
21
-85.9787
0
LINE
8
BLACK
6
CONTINUOUS
10
179.786
20
-85.9787
11
179.783
21
-85.9779
0
LINE
8
BLACK
6
CONTINUOUS
10
179.783
20
-85.9779
11
179.777
21
-85.9751
0
LINE
8
BLACK
6
CONTINUOUS
10
179.777
20
-85.9751
11
179.771
21
-85.9728
0
LINE
8
BLACK
6
CONTINUOUS
10
179.771
20
-85.9728
11
179.768
21
-85.971
0
LINE
8
BLACK
6
CONTINUOUS
10
179.768
20
-85.971
11
179.765
21
-85.9696
0
LINE
8
BLACK
6
CONTINUOUS
10
179.765
20
-85.9696
11
179.76
21
-85.9658
0
LINE
8
BLACK
6
CONTINUOUS
10
179.76
20
-85.9658
11
179.754
21
-85.9623
0
LINE
8
BLACK
6
CONTINUOUS
10
179.754
20
-85.9623
11
179.752
21
-85.96
0
LINE
8
BLACK
6
CONTINUOUS
10
179.752
20
-85.96
11
179.749
21
-85.9581
0
LINE
8
BLACK
6
CONTINUOUS
10
179.749
20
-85.9581
11
179.745
21
-85.9533
0
LINE
8
BLACK
6
CONTINUOUS
10
179.745
20
-85.9533
11
179.74
21
-85.9488
0
LINE
8
BLACK
6
CONTINUOUS
10
179.74
20
-85.9488
11
179.738
21
-85.9461
0
LINE
8
BLACK
6
CONTINUOUS
10
179.738
20
-85.9461
11
179.736
21
-85.9437
0
LINE
8
BLACK
6
CONTINUOUS
10
179.736
20
-85.9437
11
179.733
21
-85.9381
0
LINE
8
BLACK
6
CONTINUOUS
10
179.733
20
-85.9381
11
179.729
21
-85.9328
0
LINE
8
BLACK
6
CONTINUOUS
10
179.729
20
-85.9328
11
179.728
21
-85.9298
0
LINE
8
BLACK
6
CONTINUOUS
10
179.728
20
-85.9298
11
179.726
21
-85.927
0
LINE
8
BLACK
6
CONTINUOUS
10
179.726
20
-85.927
11
179.724
21
-85.9209
0
LINE
8
BLACK
6
CONTINUOUS
10
179.724
20
-85.9209
11
179.721
21
-85.915
0
LINE
8
BLACK
6
CONTINUOUS
10
179.721
20
-85.915
11
179.721
21
-85.9118
0
LINE
8
BLACK
6
CONTINUOUS
10
179.721
20
-85.9118
11
179.719
21
-85.9087
0
LINE
8
BLACK
6
CONTINUOUS
10
179.719
20
-85.9087
11
179.718
21
-85.9023
0
LINE
8
BLACK
6
CONTINUOUS
10
179.718
20
-85.9023
11
179.717
21
-85.8959
0
LINE
8
BLACK
6
CONTINUOUS
10
179.717
20
-85.8959
11
179.717
21
-85.8927
0
LINE
8
BLACK
6
CONTINUOUS
10
179.717
20
-85.8927
11
179.716
21
-85.8894
0
LINE
8
BLACK
6
CONTINUOUS
10
179.716
20
-85.8894
11
179.717
21
-85.8829
0
LINE
8
BLACK
6
CONTINUOUS
10
179.717
20
-85.8829
11
179.716
21
-85.8764
0
LINE
8
BLACK
6
CONTINUOUS
10
179.716
20
-85.8764
11
179.717
21
-85.8732
0
LINE
8
BLACK
6
CONTINUOUS
10
179.717
20
-85.8732
11
179.717
21
-85.8699
0
LINE
8
BLACK
6
CONTINUOUS
10
179.717
20
-85.8699
11
179.719
21
-85.8636
0
LINE
8
BLACK
6
CONTINUOUS
10
179.719
20
-85.8636
11
179.72
21
-85.8572
0
LINE
8
BLACK
6
CONTINUOUS
10
179.72
20
-85.8572
11
179.721
21
-85.8541
0
LINE
8
BLACK
6
CONTINUOUS
10
179.721
20
-85.8541
11
179.722
21
-85.8509
0
LINE
8
BLACK
6
CONTINUOUS
10
179.722
20
-85.8509
11
179.724
21
-85.845
0
LINE
8
BLACK
6
CONTINUOUS
10
179.724
20
-85.845
11
179.727
21
-85.8389
0
LINE
8
BLACK
6
CONTINUOUS
10
179.727
20
-85.8389
11
179.728
21
-85.8362
0
LINE
8
BLACK
6
CONTINUOUS
10
179.728
20
-85.8362
11
179.73
21
-85.8332
0
LINE
8
BLACK
6
CONTINUOUS
10
179.73
20
-85.8332
11
179.734
21
-85.8279
0
LINE
8
BLACK
6
CONTINUOUS
10
179.734
20
-85.8279
11
179.737
21
-85.8224
0
LINE
8
BLACK
6
CONTINUOUS
10
179.737
20
-85.8224
11
179.739
21
-85.82
0
LINE
8
BLACK
6
CONTINUOUS
10
179.739
20
-85.82
11
179.741
21
-85.8174
0
LINE
8
BLACK
6
CONTINUOUS
10
179.741
20
-85.8174
11
179.746
21
-85.813
0
LINE
8
BLACK
6
CONTINUOUS
10
179.746
20
-85.813
11
179.75
21
-85.8082
0
LINE
8
BLACK
6
CONTINUOUS
10
179.75
20
-85.8082
11
179.753
21
-85.8063
0
LINE
8
BLACK
6
CONTINUOUS
10
179.753
20
-85.8063
11
179.756
21
-85.8041
0
LINE
8
BLACK
6
CONTINUOUS
10
179.756
20
-85.8041
11
179.761
21
-85.8007
0
LINE
8
BLACK
6
CONTINUOUS
10
179.761
20
-85.8007
11
179.766
21
-85.7969
0
LINE
8
BLACK
6
CONTINUOUS
10
179.766
20
-85.7969
11
179.769
21
-85.7956
0
LINE
8
BLACK
6
CONTINUOUS
10
179.769
20
-85.7956
11
179.772
21
-85.7938
0
LINE
8
BLACK
6
CONTINUOUS
10
179.772
20
-85.7938
11
179.778
21
-85.7916
0
LINE
8
BLACK
6
CONTINUOUS
10
179.778
20
-85.7916
11
179.784
21
-85.7889
0
LINE
8
BLACK
6
CONTINUOUS
10
179.784
20
-85.7889
11
179.787
21
-85.7881
0
LINE
8
BLACK
6
CONTINUOUS
10
179.787
20
-85.7881
11
179.79
21
-85.787
0
LINE
8
BLACK
6
CONTINUOUS
10
179.79
20
-85.787
11
180.836
21
-85.5082
0
LINE
8
BLACK
6
CONTINUOUS
10
180.836
20
-85.5082
11
179.222
21
-85.1238
0
LINE
8
BLACK
6
CONTINUOUS
10
179.222
20
-85.1238
11
179.22
21
-85.1234
0
LINE
8
BLACK
6
CONTINUOUS
10
179.22
20
-85.1234
11
179.202
21
-85.1168
0
LINE
8
BLACK
6
CONTINUOUS
10
179.202
20
-85.1168
11
179.185
21
-85.1068
0
LINE
8
BLACK
6
CONTINUOUS
10
179.185
20
-85.1068
11
179.171
21
-85.0937
0
LINE
8
BLACK
6
CONTINUOUS
10
179.171
20
-85.0937
11
179.159
21
-85.078
0
LINE
8
BLACK
6
CONTINUOUS
10
179.159
20
-85.078
11
179.151
21
-85.0604
0
LINE
8
BLACK
6
CONTINUOUS
10
179.151
20
-85.0604
11
179.146
21
-85.0414
0
LINE
8
BLACK
6
CONTINUOUS
10
179.146
20
-85.0414
11
179.145
21
-85.022
0
LINE
8
BLACK
6
CONTINUOUS
10
179.145
20
-85.022
11
179.148
21
-85.0026
0
LINE
8
BLACK
6
CONTINUOUS
10
179.148
20
-85.0026
11
179.154
21
-84.9842
0
LINE
8
BLACK
6
CONTINUOUS
10
179.154
20
-84.9842
11
179.164
21
-84.9674
0
LINE
8
BLACK
6
CONTINUOUS
10
179.164
20
-84.9674
11
179.177
21
-84.9529
0
LINE
8
BLACK
6
CONTINUOUS
10
179.177
20
-84.9529
11
179.193
21
-84.9411
0
LINE
8
BLACK
6
CONTINUOUS
10
179.193
20
-84.9411
11
179.21
21
-84.9326
0
LINE
8
BLACK
6
CONTINUOUS
10
179.21
20
-84.9326
11
179.229
21
-84.9277
0
LINE
8
BLACK
6
CONTINUOUS
10
179.229
20
-84.9277
11
179.249
21
-84.9265
0
LINE
8
BLACK
6
CONTINUOUS
10
179.249
20
-84.9265
11
179.268
21
-84.9292
0
LINE
8
BLACK
6
CONTINUOUS
10
181.246
20
-83.0217
11
181.266
21
-83.0239
0
LINE
8
BLACK
6
CONTINUOUS
10
181.266
20
-83.0239
11
181.284
21
-83.0298
0
LINE
8
BLACK
6
CONTINUOUS
10
181.284
20
-83.0298
11
181.301
21
-83.0392
0
LINE
8
BLACK
6
CONTINUOUS
10
181.301
20
-83.0392
11
181.316
21
-83.0517
0
LINE
8
BLACK
6
CONTINUOUS
10
181.316
20
-83.0517
11
181.328
21
-83.067
0
LINE
8
BLACK
6
CONTINUOUS
10
181.328
20
-83.067
11
181.337
21
-83.0843
0
LINE
8
BLACK
6
CONTINUOUS
10
181.337
20
-83.0843
11
181.343
21
-83.103
0
LINE
8
BLACK
6
CONTINUOUS
10
181.343
20
-83.103
11
181.345
21
-83.1224
0
LINE
8
BLACK
6
CONTINUOUS
10
181.345
20
-83.1224
11
181.343
21
-83.1418
0
LINE
8
BLACK
6
CONTINUOUS
10
181.343
20
-83.1418
11
181.337
21
-83.1605
0
LINE
8
BLACK
6
CONTINUOUS
10
181.337
20
-83.1605
11
181.328
21
-83.1776
0
LINE
8
BLACK
6
CONTINUOUS
10
181.328
20
-83.1776
11
181.315
21
-83.1927
0
LINE
8
BLACK
6
CONTINUOUS
10
181.315
20
-83.1927
11
181.3
21
-83.205
0
LINE
8
BLACK
6
CONTINUOUS
10
181.3
20
-83.205
11
181.283
21
-83.2142
0
LINE
8
BLACK
6
CONTINUOUS
10
181.283
20
-83.2142
11
181.264
21
-83.2198
0
LINE
8
BLACK
6
CONTINUOUS
10
181.264
20
-83.2198
11
181.245
21
-83.2217
0
LINE
8
BLACK
6
CONTINUOUS
10
181.245
20
-83.2217
11
180.297
21
-83.2217
0
LINE
8
BLACK
6
CONTINUOUS
10
180.297
20
-83.2217
11
180.297
21
-84.1646
0
LINE
8
BLACK
6
CONTINUOUS
10
180.297
20
-84.1646
11
181.245
21
-84.1646
0
LINE
8
BLACK
6
CONTINUOUS
10
181.245
20
-84.1646
11
181.246
21
-84.1646
0
LINE
8
BLACK
6
CONTINUOUS
10
181.246
20
-84.1646
11
181.266
21
-84.1668
0
LINE
8
BLACK
6
CONTINUOUS
10
181.266
20
-84.1668
11
181.284
21
-84.1727
0
LINE
8
BLACK
6
CONTINUOUS
10
181.284
20
-84.1727
11
181.301
21
-84.1821
0
LINE
8
BLACK
6
CONTINUOUS
10
181.301
20
-84.1821
11
181.316
21
-84.1946
0
LINE
8
BLACK
6
CONTINUOUS
10
181.316
20
-84.1946
11
181.328
21
-84.2098
0
LINE
8
BLACK
6
CONTINUOUS
10
181.328
20
-84.2098
11
181.337
21
-84.2271
0
LINE
8
BLACK
6
CONTINUOUS
10
181.337
20
-84.2271
11
181.343
21
-84.2458
0
LINE
8
BLACK
6
CONTINUOUS
10
181.343
20
-84.2458
11
181.345
21
-84.2653
0
LINE
8
BLACK
6
CONTINUOUS
10
181.345
20
-84.2653
11
181.343
21
-84.2847
0
LINE
8
BLACK
6
CONTINUOUS
10
181.343
20
-84.2847
11
181.337
21
-84.3033
0
LINE
8
BLACK
6
CONTINUOUS
10
181.337
20
-84.3033
11
181.328
21
-84.3205
0
LINE
8
BLACK
6
CONTINUOUS
10
181.328
20
-84.3205
11
181.315
21
-84.3355
0
LINE
8
BLACK
6
CONTINUOUS
10
181.315
20
-84.3355
11
181.3
21
-84.3479
0
LINE
8
BLACK
6
CONTINUOUS
10
181.3
20
-84.3479
11
181.283
21
-84.357
0
LINE
8
BLACK
6
CONTINUOUS
10
181.283
20
-84.357
11
181.264
21
-84.3627
0
LINE
8
BLACK
6
CONTINUOUS
10
181.264
20
-84.3627
11
181.245
21
-84.3646
0
LINE
8
BLACK
6
CONTINUOUS
10
181.245
20
-84.3646
11
179.245
21
-84.3646
0
LINE
8
BLACK
6
CONTINUOUS
10
179.245
20
-84.3646
11
179.243
21
-84.3646
0
LINE
8
BLACK
6
CONTINUOUS
10
179.243
20
-84.3646
11
179.224
21
-84.3624
0
LINE
8
BLACK
6
CONTINUOUS
10
179.224
20
-84.3624
11
179.205
21
-84.3565
0
LINE
8
BLACK
6
CONTINUOUS
10
179.205
20
-84.3565
11
179.188
21
-84.3471
0
LINE
8
BLACK
6
CONTINUOUS
10
179.188
20
-84.3471
11
179.173
21
-84.3345
0
LINE
8
BLACK
6
CONTINUOUS
10
179.173
20
-84.3345
11
179.161
21
-84.3193
0
LINE
8
BLACK
6
CONTINUOUS
10
179.161
20
-84.3193
11
179.152
21
-84.302
0
LINE
8
BLACK
6
CONTINUOUS
10
179.152
20
-84.302
11
179.147
21
-84.2833
0
LINE
8
BLACK
6
CONTINUOUS
10
179.147
20
-84.2833
11
179.145
21
-84.2639
0
LINE
8
BLACK
6
CONTINUOUS
10
179.145
20
-84.2639
11
179.147
21
-84.2445
0
LINE
8
BLACK
6
CONTINUOUS
10
179.147
20
-84.2445
11
179.153
21
-84.2258
0
LINE
8
BLACK
6
CONTINUOUS
10
179.153
20
-84.2258
11
179.162
21
-84.2087
0
LINE
8
BLACK
6
CONTINUOUS
10
179.162
20
-84.2087
11
179.174
21
-84.1936
0
LINE
8
BLACK
6
CONTINUOUS
10
179.174
20
-84.1936
11
179.189
21
-84.1813
0
LINE
8
BLACK
6
CONTINUOUS
10
179.189
20
-84.1813
11
179.207
21
-84.1721
0
LINE
8
BLACK
6
CONTINUOUS
10
179.207
20
-84.1721
11
179.225
21
-84.1665
0
LINE
8
BLACK
6
CONTINUOUS
10
179.225
20
-84.1665
11
179.245
21
-84.1646
0
LINE
8
BLACK
6
CONTINUOUS
10
179.245
20
-84.1646
11
180.097
21
-84.1646
0
LINE
8
BLACK
6
CONTINUOUS
10
180.097
20
-84.1646
11
180.097
21
-83.2217
0
LINE
8
BLACK
6
CONTINUOUS
10
180.097
20
-83.2217
11
179.245
21
-83.2217
0
LINE
8
BLACK
6
CONTINUOUS
10
179.245
20
-83.2217
11
179.243
21
-83.2217
0
LINE
8
BLACK
6
CONTINUOUS
10
179.243
20
-83.2217
11
179.224
21
-83.2195
0
LINE
8
BLACK
6
CONTINUOUS
10
179.224
20
-83.2195
11
179.205
21
-83.2136
0
LINE
8
BLACK
6
CONTINUOUS
10
179.205
20
-83.2136
11
179.188
21
-83.2042
0
LINE
8
BLACK
6
CONTINUOUS
10
179.188
20
-83.2042
11
179.173
21
-83.1917
0
LINE
8
BLACK
6
CONTINUOUS
10
179.173
20
-83.1917
11
179.161
21
-83.1765
0
LINE
8
BLACK
6
CONTINUOUS
10
179.161
20
-83.1765
11
179.152
21
-83.1592
0
LINE
8
BLACK
6
CONTINUOUS
10
179.152
20
-83.1592
11
179.147
21
-83.1405
0
LINE
8
BLACK
6
CONTINUOUS
10
179.147
20
-83.1405
11
179.145
21
-83.121
0
LINE
8
BLACK
6
CONTINUOUS
10
179.145
20
-83.121
11
179.147
21
-83.1016
0
LINE
8
BLACK
6
CONTINUOUS
10
179.147
20
-83.1016
11
179.153
21
-83.083
0
LINE
8
BLACK
6
CONTINUOUS
10
179.153
20
-83.083
11
179.162
21
-83.0658
0
LINE
8
BLACK
6
CONTINUOUS
10
179.162
20
-83.0658
11
179.174
21
-83.0508
0
LINE
8
BLACK
6
CONTINUOUS
10
179.174
20
-83.0508
11
179.189
21
-83.0384
0
LINE
8
BLACK
6
CONTINUOUS
10
179.189
20
-83.0384
11
179.207
21
-83.0293
0
LINE
8
BLACK
6
CONTINUOUS
10
179.207
20
-83.0293
11
179.225
21
-83.0236
0
LINE
8
BLACK
6
CONTINUOUS
10
179.225
20
-83.0236
11
179.245
21
-83.0217
0
LINE
8
BLACK
6
CONTINUOUS
10
179.245
20
-83.0217
11
181.245
21
-83.0217
0
LINE
8
BLACK
6
CONTINUOUS
10
181.245
20
-83.0217
11
181.246
21
-83.0217
  0
ENDSEC
  0
EOF
